<?xml version="1.0" standalone="no"?>
<!DOCTYPE svg PUBLIC "-//W3C//DTD SVG 20010904//EN"
 "http://www.w3.org/TR/2001/REC-SVG-20010904/DTD/svg10.dtd">
<svg version="1.0" xmlns="http://www.w3.org/2000/svg"
 width="3500.000000pt" height="2082.000000pt" viewBox="0 0 3500.000000 2082.000000"
 preserveAspectRatio="xMidYMid meet">

<g transform="translate(0.000000,2082.000000) scale(0.100000,-0.100000)"
fill="#000000" stroke="none">
<path d="M1739 20026 c-135 -38 -407 -212 -552 -354 -235 -230 -408 -548 -479
-878 -20 -95 -23 -137 -23 -319 0 -254 11 -331 76 -528 53 -161 83 -226 164
-356 250 -401 706 -703 1185 -786 52 -9 120 -22 150 -29 41 -9 72 -10 115 -3
65 11 143 3 168 -16 9 -7 52 -93 95 -192 93 -215 121 -269 145 -273 22 -4 22
23 2 71 -8 20 -15 48 -15 63 0 23 3 26 27 21 35 -7 53 1 53 23 0 10 -30 80
-67 155 -76 155 -76 161 3 183 316 86 514 185 725 361 172 143 314 327 418
539 80 163 85 172 97 172 20 0 39 -59 26 -81 -19 -29 -16 -41 44 -182 31 -73
64 -163 74 -201 19 -69 32 -88 60 -83 36 6 21 57 -59 214 -45 86 -81 163 -81
171 0 20 77 95 90 87 6 -4 22 -24 36 -46 26 -42 54 -52 54 -19 0 24 -116 287
-166 377 l-34 61 0 184 c0 267 -33 430 -130 647 -129 290 -318 512 -590 692
-146 96 -357 188 -535 232 -163 41 -402 46 -508 11 -124 -41 -153 -136 -69
-226 31 -33 45 -34 113 -8 178 70 348 67 589 -12 209 -68 466 -242 646 -438
171 -186 255 -361 305 -635 18 -102 20 -142 15 -265 -9 -223 -50 -387 -147
-582 -134 -273 -368 -501 -664 -643 -205 -100 -521 -179 -760 -192 -237 -12
-518 59 -742 188 -109 64 -143 90 -243 189 -128 127 -213 244 -285 391 -119
244 -170 569 -130 829 46 308 154 540 363 781 106 123 196 202 310 275 72 46
74 46 92 28 11 -11 34 -55 52 -99 37 -89 63 -107 88 -60 7 14 17 25 22 25 4 0
24 -22 44 -50 35 -49 48 -58 58 -42 6 10 -24 94 -73 200 -23 49 -41 103 -41
121 0 18 18 66 41 110 22 43 43 97 46 119 5 34 1 44 -20 66 -22 22 -35 26 -79
25 -29 0 -74 -6 -99 -13z"/>
<path d="M11337 19935 c-314 -51 -632 -243 -818 -494 -82 -110 -168 -256 -193
-329 -9 -24 -25 -56 -36 -72 -11 -15 -20 -43 -20 -62 0 -48 -17 -102 -39 -122
-12 -11 -69 -25 -162 -41 -181 -31 -233 -46 -237 -68 -3 -14 4 -17 41 -17 41
0 46 -3 56 -30 5 -17 16 -33 24 -36 8 -2 56 4 107 16 116 25 147 25 158 3 5
-10 12 -76 15 -148 15 -314 150 -614 372 -825 119 -114 182 -182 198 -217 9
-21 7 -27 -18 -47 -32 -26 -27 -46 13 -46 15 0 74 9 132 20 l105 20 85 -25
c115 -33 296 -48 433 -35 321 31 638 204 839 460 163 206 265 461 243 607 -14
94 -98 133 -164 77 l-31 -26 6 -86 c10 -141 -35 -283 -130 -415 -57 -81 -244
-262 -324 -316 -99 -66 -258 -138 -344 -156 -158 -31 -393 -12 -545 45 -75 28
-189 87 -253 130 -69 47 -228 211 -273 282 -116 182 -172 372 -184 623 -21
477 191 872 572 1062 163 82 388 123 561 103 270 -30 491 -131 676 -309 104
-98 166 -182 233 -313 45 -87 55 -115 55 -157 0 -27 -4 -53 -10 -56 -5 -3 -10
-19 -10 -36 0 -19 -10 -37 -30 -56 -44 -39 -26 -54 56 -46 60 5 67 4 92 -19
34 -32 100 -74 130 -83 17 -5 29 1 52 24 28 27 30 35 30 101 0 97 -58 298
-122 423 -42 84 -161 250 -231 324 -70 73 -251 204 -355 257 -66 33 -220 85
-305 102 -108 21 -344 26 -450 9z"/>
<path d="M24870 19873 c-25 -8 -103 -38 -175 -66 -145 -57 -144 -57 -354 -39
-235 20 -456 -5 -686 -79 -290 -92 -558 -250 -774 -455 -205 -195 -411 -527
-506 -819 -64 -193 -79 -283 -79 -465 -1 -142 1 -159 23 -208 50 -112 138
-143 232 -84 81 52 81 51 34 222 -23 85 -26 107 -21 215 10 255 111 502 320
785 71 97 307 330 416 412 160 120 319 190 540 239 122 27 414 37 540 19 281
-40 519 -130 739 -278 96 -65 275 -232 361 -338 225 -274 372 -685 411 -1146
35 -404 -75 -818 -299 -1131 -67 -93 -226 -253 -335 -337 -204 -156 -481 -271
-752 -311 -129 -20 -464 -17 -578 4 -338 64 -644 216 -886 440 -91 85 -215
226 -283 322 -94 135 -106 174 -56 194 68 28 222 71 252 71 40 0 65 24 49 48
-20 33 -65 25 -193 -33 -68 -30 -134 -55 -147 -55 -32 0 -29 25 6 46 50 29 46
65 -10 95 -27 14 -17 24 50 58 65 33 86 54 77 76 -8 21 -31 19 -131 -15 -123
-42 -144 -40 -234 20 -79 51 -146 80 -188 80 -14 0 -37 -13 -54 -29 -27 -27
-29 -35 -29 -104 0 -141 64 -316 197 -539 217 -363 483 -607 866 -794 759
-369 1650 -226 2260 365 198 191 401 500 501 760 42 107 106 315 106 340 0 10
7 41 15 69 19 64 42 80 129 93 36 5 182 45 323 90 142 45 334 105 427 133 188
56 236 85 236 143 0 72 -55 71 -178 -4 -68 -40 -161 -81 -340 -148 -284 -106
-465 -179 -496 -200 -32 -23 -65 -19 -76 10 -12 31 6 192 24 220 14 21 38 31
421 170 180 65 230 90 230 116 0 20 -64 17 -147 -6 -37 -11 -70 -16 -73 -13
-4 4 -1 22 6 42 14 39 2 66 -31 66 -9 0 -94 -31 -187 -69 -203 -83 -216 -87
-232 -68 -6 8 -21 68 -32 133 -67 400 -253 770 -538 1068 -117 122 -329 279
-478 354 -67 34 -80 53 -55 75 20 17 241 93 297 102 84 13 95 17 106 37 8 15
7 24 -7 40 -24 26 -59 19 -183 -36 -167 -75 -280 -118 -298 -114 -9 2 -20 14
-23 28 -3 14 -21 35 -40 48 -19 13 -34 26 -33 30 1 4 33 23 70 42 50 25 69 41
71 58 3 20 -1 22 -35 21 -21 0 -58 -7 -83 -16z"/>
<path d="M15740 19456 c-193 -58 -352 -181 -450 -345 -77 -129 -124 -336 -102
-447 7 -32 12 -71 12 -88 0 -39 56 -176 101 -251 70 -116 206 -242 329 -307
56 -29 70 -56 70 -136 0 -63 12 -102 30 -102 26 0 50 41 50 86 0 81 0 81 152
76 113 -4 147 -1 217 17 96 24 206 74 271 124 59 45 108 71 145 77 28 5 30 8
37 63 4 32 23 93 42 135 49 112 61 171 60 302 -1 173 -49 306 -160 451 -121
158 -323 270 -384 214 -21 -19 -26 -51 -11 -73 4 -7 37 -20 72 -28 108 -25
199 -91 269 -194 98 -145 148 -296 137 -419 -23 -261 -224 -496 -478 -556
-139 -32 -342 -13 -486 47 -244 101 -383 306 -383 562 0 101 21 190 65 281 87
179 214 291 405 355 62 21 64 21 138 3 73 -17 76 -17 86 1 6 10 26 37 43 60
66 84 36 116 -107 115 -68 0 -116 -7 -170 -23z"/>
<path d="M1710 19430 c0 -6 13 -45 29 -88 17 -42 33 -90 37 -107 10 -45 32
-67 55 -54 26 13 24 40 -7 102 -57 112 -114 186 -114 147z"/>
<path d="M11455 19385 c-69 -37 -95 -80 -95 -155 0 -64 20 -102 72 -140 108
-78 268 1 268 132 0 102 -61 169 -158 175 -39 3 -66 -1 -87 -12z"/>
<path d="M30965 19355 c-379 -88 -675 -313 -842 -641 -91 -178 -127 -301 -143
-495 -19 -209 8 -404 80 -596 23 -59 46 -126 52 -148 6 -22 21 -51 33 -65 39
-44 65 -88 65 -107 0 -11 -47 -91 -105 -178 -58 -87 -105 -166 -105 -176 0
-25 22 -24 46 2 14 16 27 20 52 15 18 -3 40 -2 48 1 7 3 43 50 79 104 39 60
71 99 81 99 9 0 44 -24 78 -53 186 -163 404 -274 631 -322 60 -13 128 -17 272
-17 106 0 195 -3 198 -8 3 -4 21 -3 39 2 28 9 40 8 60 -6 21 -13 25 -23 23
-54 -4 -63 23 -45 100 70 71 103 76 108 180 174 280 177 482 480 543 814 16
84 16 334 1 430 -47 288 -196 549 -328 576 -28 6 -37 2 -68 -29 -59 -59 -52
-84 55 -193 125 -127 169 -228 200 -454 28 -203 -32 -519 -131 -687 -51 -86
-247 -277 -347 -337 -91 -54 -231 -110 -331 -132 -274 -61 -568 2 -831 179
-107 72 -323 291 -395 401 -279 424 -216 943 156 1301 200 192 401 286 670
314 129 13 271 -1 420 -40 116 -31 169 -57 169 -83 0 -7 -25 -45 -55 -85 -30
-40 -53 -77 -49 -82 11 -19 34 -8 60 29 16 20 39 49 52 63 l23 27 27 -25 c21
-19 25 -32 24 -63 -4 -54 13 -52 68 11 44 50 46 51 119 59 220 24 157 166
-134 306 -198 95 -338 124 -580 123 -131 0 -178 -5 -260 -24z"/>
<path d="M24405 19265 c-248 -113 -232 -107 -336 -115 -84 -5 -103 -10 -124
-30 -47 -44 -42 -127 12 -191 50 -58 71 -64 258 -65 189 -1 240 -11 362 -69
152 -71 298 -197 398 -340 215 -310 322 -792 256 -1155 -25 -138 -26 -188 -5
-218 26 -38 86 -27 117 22 54 82 63 649 13 856 -49 206 -135 388 -272 575
-124 169 -375 373 -592 480 -62 30 -115 62 -119 70 -3 9 5 26 20 40 13 14 27
39 31 55 4 20 14 34 31 40 31 12 43 39 24 51 -19 12 -38 10 -74 -6z"/>
<path d="M10817 19179 c-18 -13 -34 -43 -47 -86 -41 -133 -50 -203 -50 -384 0
-160 2 -185 26 -265 58 -203 187 -384 392 -552 28 -24 52 -49 52 -56 0 -7 -14
-30 -30 -51 -43 -54 -28 -65 58 -40 37 10 109 21 159 23 81 3 95 6 108 25 46
66 -33 167 -131 167 -46 0 -157 34 -206 63 -187 109 -306 329 -335 616 -12
119 10 281 58 435 23 71 24 90 3 110 -20 21 -26 20 -57 -5z"/>
<path d="M2730 19047 c-108 -57 -159 -197 -111 -303 40 -89 142 -164 221 -164
42 0 146 48 177 82 71 78 84 184 33 285 -44 88 -90 117 -195 121 -69 3 -86 0
-125 -21z"/>
<path d="M9945 18979 c-336 -38 -375 -47 -375 -90 0 -41 53 -43 126 -7 16 9
86 27 155 42 168 36 201 45 194 57 -4 5 -12 8 -18 8 -7 -1 -43 -5 -82 -10z"/>
<path d="M12291 18956 c-17 -20 12 -40 46 -32 49 11 83 28 77 37 -9 15 -110
11 -123 -5z"/>
<path d="M16154 18926 c-46 -46 -48 -104 -5 -147 65 -64 171 -20 171 71 0 52
-13 76 -50 95 -46 24 -78 19 -116 -19z"/>
<path d="M15564 18862 c-28 -22 -44 -54 -44 -87 0 -33 59 -95 89 -95 54 0 111
57 111 111 0 11 -15 36 -34 55 -39 39 -87 45 -122 16z"/>
<path d="M30797 18660 c-139 -42 -173 -230 -56 -307 55 -36 113 -40 169 -11
105 54 129 178 53 269 -44 52 -101 68 -166 49z"/>
<path d="M16377 18590 c-14 -11 -33 -43 -42 -70 -9 -28 -36 -71 -62 -100 -78
-86 -168 -120 -324 -120 -104 0 -191 20 -281 66 -54 27 -83 30 -91 10 -9 -23
14 -44 93 -80 82 -38 202 -66 278 -66 62 0 186 32 249 63 26 14 80 48 118 77
55 40 76 50 97 46 31 -6 33 -2 43 95 5 54 3 69 -10 83 -22 21 -37 20 -68 -4z"/>
<path d="M23446 18549 c-77 -19 -137 -60 -177 -122 -53 -82 -66 -145 -45 -225
22 -86 58 -135 130 -180 54 -32 70 -37 137 -40 60 -3 86 0 120 16 124 55 189
150 189 272 0 115 -64 216 -166 261 -51 23 -137 31 -188 18z"/>
<path d="M3421 18501 c-51 -51 -56 -82 -41 -225 13 -125 7 -175 -35 -298 -87
-251 -371 -485 -702 -578 -199 -56 -327 -72 -504 -65 -138 7 -157 6 -172 -10
-24 -23 -21 -48 9 -76 25 -23 30 -24 222 -27 110 -2 238 2 290 8 447 55 836
362 1022 805 55 131 58 133 112 110 24 -10 53 -27 65 -38 29 -25 57 -16 48 15
-4 13 -30 63 -57 111 -51 90 -78 167 -78 225 0 50 -37 82 -95 82 -39 0 -50 -5
-84 -39z"/>
<path d="M11751 18418 c-89 -44 -130 -166 -82 -244 52 -86 157 -117 246 -74
48 23 89 79 101 137 13 66 -38 151 -111 184 -53 25 -101 24 -154 -3z"/>
<path d="M1638 18356 c-64 -17 -111 -56 -142 -118 -57 -114 -10 -245 109 -303
70 -35 140 -32 208 8 69 41 102 102 102 192 0 64 -3 75 -36 126 -56 85 -146
121 -241 95z"/>
<path d="M31675 18204 c-78 -40 -110 -100 -103 -189 8 -97 73 -155 174 -155
78 0 126 28 159 94 46 92 23 187 -57 239 -49 32 -124 37 -173 11z"/>
<path d="M30392 17978 c-21 -21 -12 -61 33 -146 153 -285 398 -477 685 -539
90 -19 260 -23 388 -10 106 12 113 9 121 -55 9 -65 31 -60 72 14 19 34 60 89
92 122 51 52 58 63 55 94 -6 74 -101 101 -174 49 -171 -121 -209 -136 -354
-144 -79 -4 -110 -1 -180 17 -98 27 -219 84 -305 145 -114 81 -267 258 -325
375 -40 80 -78 108 -108 78z"/>
<path d="M15584 17756 c-3 -7 -4 -40 -2 -72 2 -47 7 -59 21 -62 15 -3 17 5 17
56 0 64 -6 92 -21 92 -5 0 -12 -6 -15 -14z"/>
<path d="M6770 17680 c-187 -16 -385 -75 -571 -171 -431 -222 -748 -654 -824
-1126 -18 -109 -20 -432 -4 -550 39 -292 214 -677 397 -874 57 -61 72 -84 72
-109 0 -17 -34 -105 -76 -198 -42 -92 -85 -191 -95 -221 -36 -104 -17 -120 40
-33 34 52 63 67 75 37 7 -18 40 -20 54 -2 6 6 29 59 52 116 62 156 76 180 106
181 7 0 53 -27 103 -60 115 -75 185 -111 309 -156 197 -73 300 -93 502 -101
185 -7 328 7 465 43 149 39 152 39 160 15 6 -21 -46 -131 -114 -238 -34 -53
-35 -78 -5 -90 32 -12 69 47 113 178 47 142 74 194 97 185 9 -3 23 -6 33 -6 9
0 26 -6 36 -14 17 -12 17 -17 5 -60 -10 -36 -10 -50 -1 -59 19 -19 42 16 117
176 67 145 71 150 142 209 251 210 444 539 507 860 34 174 29 503 -10 671 -62
265 -227 579 -373 708 -146 129 -266 133 -303 11 -18 -61 -7 -84 53 -117 161
-87 265 -201 353 -388 122 -256 169 -614 116 -878 -27 -135 -48 -195 -107
-310 -152 -293 -423 -527 -753 -649 -220 -81 -467 -97 -686 -46 -149 35 -183
46 -317 106 -117 52 -262 135 -360 207 -89 65 -295 274 -357 363 -144 203
-241 497 -241 727 0 97 32 279 70 393 34 102 126 285 189 375 65 94 181 215
288 300 174 138 368 226 610 276 140 29 157 31 303 26 164 -6 321 -34 350 -62
13 -14 12 -21 -14 -71 -16 -31 -45 -81 -63 -112 -36 -59 -39 -85 -11 -90 28
-5 49 31 87 145 25 73 41 108 51 108 10 0 16 -12 18 -35 4 -38 15 -50 50 -50
23 0 23 -2 16 -70 -9 -93 8 -87 65 20 23 44 50 84 59 89 10 5 47 17 82 26 91
23 129 43 146 76 44 87 -109 200 -364 269 -62 17 -144 35 -181 40 -100 14
-353 20 -461 10z"/>
<path d="M10487 17533 c-14 -14 -6 -42 13 -48 21 -7 167 32 176 47 6 9 -179
11 -189 1z"/>
<path d="M19040 17308 c-14 -5 -90 -11 -170 -12 -134 -2 -152 -4 -239 -34 -92
-32 -187 -88 -269 -158 -63 -53 -167 -216 -198 -309 -32 -95 -42 -210 -24
-256 16 -39 54 -55 84 -36 19 13 21 24 21 129 l0 114 44 89 c36 72 62 108 137
186 104 106 161 142 268 170 142 37 301 19 435 -51 108 -56 226 -177 277 -283
104 -219 110 -466 16 -652 -47 -95 -161 -211 -253 -260 -246 -129 -543 -88
-751 104 -89 82 -128 141 -129 195 -2 72 -11 89 -52 98 -21 4 -51 15 -68 24
-91 47 -116 -41 -51 -180 68 -144 203 -282 347 -354 121 -61 195 -77 350 -76
134 1 144 2 236 36 176 64 298 160 395 309 73 112 134 276 134 360 0 54 29 84
108 110 37 12 73 26 80 32 20 16 14 43 -13 57 -21 11 -33 11 -80 -6 -40 -13
-60 -16 -72 -8 -9 5 -30 55 -48 109 -61 192 -148 318 -279 408 -78 53 -136
106 -147 134 -9 25 -44 30 -89 11z"/>
<path d="M29974 17258 c-169 -213 -264 -351 -264 -383 0 -30 28 -47 53 -33 10
5 33 43 52 83 18 40 70 130 114 200 79 123 111 178 111 190 0 17 -22 -2 -66
-57z"/>
<path d="M24167 17096 c-69 -19 -124 -62 -165 -129 -49 -79 -55 -152 -20 -229
53 -114 133 -169 247 -167 77 1 113 12 174 55 80 57 125 189 98 287 -39 137
-194 222 -334 183z"/>
<path d="M18865 17070 c-11 -5 -34 -9 -51 -9 -44 -1 -71 -33 -56 -66 12 -26
18 -28 122 -46 91 -15 141 -40 206 -101 59 -55 106 -136 131 -223 8 -27 18
-113 22 -190 5 -122 8 -140 23 -143 28 -5 39 41 41 168 2 137 -18 214 -85 327
-46 76 -101 130 -207 203 -43 29 -67 53 -69 68 -3 17 -10 22 -30 21 -15 0 -36
-4 -47 -9z"/>
<path d="M18524 16796 c-26 -26 -34 -42 -34 -71 0 -29 8 -45 34 -71 38 -38 70
-43 115 -20 98 51 70 196 -39 196 -34 0 -48 -6 -76 -34z"/>
<path d="M6283 16680 c-121 -62 -166 -194 -105 -311 56 -107 190 -140 298 -73
65 40 99 105 99 190 0 53 -4 69 -30 105 -69 98 -174 133 -262 89z"/>
<path d="M31397 16639 c-31 -34 -57 -68 -57 -76 0 -24 30 -26 55 -3 23 22 72
126 63 135 -2 3 -30 -23 -61 -56z"/>
<path d="M2360 16618 c0 -21 48 -152 125 -343 51 -126 100 -254 110 -283 18
-57 74 -122 103 -122 24 0 42 19 42 44 0 11 -27 61 -59 111 -33 49 -85 146
-116 215 -86 191 -179 373 -192 378 -7 2 -13 2 -13 0z"/>
<path d="M10690 16603 c-155 -56 -293 -145 -418 -270 -140 -140 -220 -259
-283 -416 -65 -166 -80 -232 -86 -403 -10 -250 18 -395 116 -599 55 -115 175
-280 257 -353 79 -71 196 -154 290 -205 89 -49 256 -109 354 -128 36 -6 90
-17 121 -25 38 -9 68 -10 95 -4 51 12 98 3 122 -23 11 -12 48 -83 82 -158 34
-75 72 -149 85 -165 l22 -28 -4 50 c-5 46 -3 51 21 62 36 16 33 37 -19 139
-25 48 -45 97 -45 109 0 24 2 25 170 79 301 96 559 310 695 575 49 96 57 105
83 91 25 -13 43 -51 61 -128 13 -53 41 -90 60 -78 17 10 13 37 -11 80 -98 181
-106 207 -64 226 20 10 30 8 55 -10 30 -21 51 -21 51 0 0 11 -25 69 -72 167
-29 61 -31 72 -39 245 -9 204 -13 225 -64 351 -98 242 -202 382 -385 518 -133
99 -265 167 -405 209 -94 27 -130 33 -249 37 -159 5 -202 -4 -240 -49 -34 -41
-34 -80 3 -121 l28 -32 79 24 c169 50 321 32 505 -61 140 -70 202 -113 315
-222 170 -162 234 -277 279 -501 29 -148 30 -181 10 -315 -75 -502 -423 -825
-997 -926 -265 -47 -558 18 -774 170 -33 24 -95 80 -137 125 -121 128 -198
274 -250 470 -26 102 -30 131 -29 250 0 116 4 151 30 250 38 146 102 282 182
388 71 94 230 248 275 268 27 11 32 10 51 -7 13 -12 27 -45 34 -80 13 -61 33
-94 51 -84 18 11 9 54 -21 103 -17 27 -28 55 -25 64 4 9 24 19 48 22 35 6 44
4 58 -15 10 -14 22 -20 33 -16 15 6 15 9 0 44 -30 67 -29 97 5 162 37 72 40
114 9 135 -22 15 -87 20 -118 9z"/>
<path d="M19909 16570 c-19 -10 -41 -26 -48 -34 -12 -14 -10 -16 13 -16 43 0
98 27 94 46 -4 25 -18 26 -59 4z"/>
<path d="M7499 16312 c-171 -89 -185 -308 -27 -405 94 -58 201 -45 279 33 74
74 96 166 60 246 -62 136 -192 189 -312 126z"/>
<path d="M749 16307 c-188 -56 -337 -198 -396 -377 -38 -115 -40 -270 -4 -370
32 -90 121 -220 188 -275 64 -52 184 -125 207 -125 33 0 66 -44 75 -99 5 -29
14 -57 22 -62 22 -13 39 10 39 52 0 51 27 79 78 79 62 0 174 28 238 60 33 16
87 53 120 81 32 29 83 68 112 86 52 33 52 34 52 84 0 28 7 79 16 113 36 138 2
332 -82 452 -109 159 -334 282 -398 218 -35 -34 -14 -58 57 -68 159 -20 339
-211 367 -388 18 -117 -9 -234 -78 -335 -94 -137 -221 -207 -397 -220 -209
-15 -407 78 -495 232 -33 57 -70 186 -70 243 0 19 9 75 21 124 27 116 93 219
183 285 90 67 135 85 195 77 l49 -6 31 48 c36 57 38 75 13 97 -24 22 -51 21
-143 -6z"/>
<path d="M18794 16246 c-44 -44 -45 -83 -3 -125 90 -91 225 30 143 128 -21 25
-33 31 -66 31 -32 0 -47 -7 -74 -34z"/>
<path d="M11348 15975 c-42 -28 -78 -96 -78 -146 0 -19 10 -55 23 -79 91 -179
327 -125 327 76 0 69 -27 118 -83 153 -50 31 -140 29 -189 -4z"/>
<path d="M1060 15920 c-43 -43 -11 -120 50 -120 63 0 93 75 47 118 -29 27 -71
28 -97 2z"/>
<path d="M607 15792 c-37 -41 -6 -112 48 -112 55 0 87 77 47 113 -25 22 -75
21 -95 -1z"/>
<path d="M5914 15745 c-30 -45 -9 -86 124 -247 148 -179 401 -346 622 -411
134 -40 228 -50 400 -44 179 6 232 15 380 62 59 19 116 35 127 35 25 0 55 -72
46 -112 -4 -20 -1 -30 12 -34 27 -11 50 24 85 130 22 66 43 111 65 135 51 58
65 83 65 119 0 65 -44 102 -120 102 -61 0 -104 -25 -160 -92 -102 -121 -197
-181 -356 -220 -370 -91 -860 132 -1154 525 -62 83 -105 100 -136 52z"/>
<path d="M26915 15708 c-151 -24 -263 -67 -321 -124 -45 -45 -48 -102 -8 -133
39 -31 60 -26 141 30 86 59 153 85 261 100 229 32 586 -76 753 -230 115 -105
211 -269 256 -437 22 -84 26 -120 27 -234 0 -194 -30 -303 -130 -472 -133
-221 -404 -429 -659 -503 -145 -43 -264 -52 -382 -32 -53 10 -128 29 -166 42
-269 93 -493 342 -584 646 -25 86 -28 108 -28 259 0 152 2 173 28 260 53 181
156 350 212 350 9 0 27 7 40 16 14 9 34 14 45 11 32 -8 33 9 3 54 -25 38 -28
50 -25 112 3 90 -12 117 -67 117 -63 0 -125 -53 -226 -195 -214 -297 -272
-684 -156 -1027 120 -355 405 -612 790 -716 86 -23 115 -26 281 -26 207 -1
349 19 429 61 71 37 83 33 185 -65 88 -86 132 -122 148 -122 5 0 8 11 8 24 0
14 4 35 9 48 12 32 -1 53 -76 123 -35 31 -63 65 -63 76 0 11 37 48 94 94 234
187 372 428 412 718 9 61 20 119 25 129 5 9 9 29 9 43 0 43 17 65 50 65 46 0
38 23 -38 103 -48 51 -75 89 -91 132 -61 156 -136 278 -239 387 -227 240 -609
368 -947 316z"/>
<path d="M1261 15681 c-11 -11 -27 -44 -36 -73 -21 -71 -58 -124 -103 -147
-103 -52 -222 -64 -350 -34 -79 18 -108 11 -77 -20 26 -27 94 -40 205 -41 99
-1 109 1 170 31 36 18 92 55 125 83 33 28 77 60 98 71 35 18 37 22 37 68 0 32
-6 55 -16 65 -20 21 -30 20 -53 -3z"/>
<path d="M11889 15593 c-51 -32 -62 -65 -54 -167 8 -108 -6 -198 -40 -265 -44
-88 -112 -167 -196 -231 -105 -79 -216 -132 -350 -166 -91 -23 -126 -27 -272
-28 -178 -1 -190 -5 -185 -51 5 -39 62 -55 198 -55 162 0 283 19 397 62 240
91 416 254 535 496 28 56 59 107 69 113 13 7 29 5 55 -6 65 -27 69 -7 18 89
-20 38 -38 88 -41 117 -11 92 -69 132 -134 92z"/>
<path d="M10510 15458 c-99 -68 -90 -222 16 -284 82 -48 182 -16 224 71 37 76
9 171 -62 215 -47 29 -134 27 -178 -2z"/>
<path d="M15095 15365 c-186 -19 -290 -41 -457 -96 -514 -170 -940 -535 -1180
-1012 -90 -180 -152 -372 -190 -592 -15 -92 -15 -487 1 -585 56 -345 190 -658
403 -941 144 -192 358 -394 537 -507 40 -26 92 -63 115 -83 22 -20 56 -40 74
-44 61 -13 202 -85 220 -113 14 -22 16 -45 14 -134 -11 -383 -2 -563 28 -563
15 0 23 27 40 140 12 78 23 97 39 66 19 -35 49 -45 73 -24 18 16 20 26 14 103
-3 47 -7 140 -8 208 -3 157 0 161 99 138 210 -48 471 -56 708 -21 356 51 685
195 964 422 46 37 94 77 108 88 24 20 25 20 39 1 18 -25 19 -244 2 -345 -10
-56 -9 -72 1 -85 17 -20 26 -20 46 0 14 15 16 46 14 254 -1 130 1 242 5 248 4
6 22 11 42 10 24 -1 42 6 60 23 32 30 39 19 48 -71 8 -79 28 -107 53 -75 12
16 14 48 11 165 -5 173 5 302 26 334 28 43 115 245 141 327 62 197 78 310 79
559 0 228 -9 316 -51 485 -47 190 -151 428 -262 597 -185 283 -495 559 -768
684 -128 59 -206 78 -290 70 -86 -7 -103 -14 -134 -57 -17 -24 -22 -45 -22
-91 1 -114 27 -138 150 -138 360 0 755 -329 1004 -835 65 -132 118 -273 148
-392 80 -312 27 -683 -145 -1023 -191 -378 -501 -664 -879 -809 -211 -80 -383
-111 -630 -111 -514 0 -971 145 -1310 417 -288 232 -463 513 -551 888 -28 115
-29 131 -29 365 l1 245 37 146 c45 174 79 265 152 408 198 387 531 685 941
844 154 59 304 97 399 101 85 4 87 4 97 -23 19 -48 25 -56 45 -59 11 -2 28 4
37 13 32 32 56 -5 56 -87 0 -36 16 -68 34 -68 22 0 36 56 36 146 0 45 4 94 9
108 6 13 44 50 85 80 94 70 136 124 136 178 0 70 -68 109 -213 123 -34 3 -75
7 -92 9 -16 2 -88 -2 -160 -9z"/>
<path d="M27056 15246 c-107 -64 -113 -195 -13 -267 109 -79 259 6 244 138 -8
76 -90 153 -162 153 -16 0 -48 -11 -69 -24z"/>
<path d="M26350 15142 c0 -16 32 -52 46 -52 20 0 18 30 -3 46 -20 15 -43 18
-43 6z"/>
<path d="M31405 15100 c-132 -24 -212 -50 -268 -88 -96 -67 -109 -142 -37
-214 48 -48 84 -50 146 -7 73 50 187 98 271 114 278 53 632 -28 956 -218 101
-60 222 -153 278 -213 151 -164 263 -395 314 -650 60 -294 18 -616 -112 -879
-102 -205 -305 -432 -507 -567 -224 -150 -460 -250 -721 -304 -110 -23 -370
-23 -480 0 -193 41 -363 113 -499 211 -159 114 -264 222 -370 379 -103 156
-193 383 -221 566 -9 52 -20 125 -26 162 -7 46 -7 89 0 140 5 40 13 102 16
137 17 174 104 414 214 594 84 138 222 297 258 297 7 0 38 -35 70 -77 32 -43
67 -80 78 -82 12 -2 27 7 40 24 l22 26 29 -24 c29 -24 67 -47 78 -47 3 0 6 11
6 24 0 24 -43 87 -139 207 -56 70 -61 91 -36 173 8 27 15 80 15 118 0 55 -4
72 -20 88 -53 53 -184 -6 -359 -159 -185 -163 -365 -438 -453 -691 -73 -209
-92 -328 -92 -565 0 -208 20 -344 79 -520 84 -252 204 -444 395 -635 270 -272
581 -429 975 -495 143 -24 575 -25 614 -1 20 13 123 35 163 36 41 0 49 -9 213
-225 90 -118 124 -158 149 -172 46 -25 43 13 -5 84 -36 51 -37 73 -5 73 33 0
52 25 39 53 -6 12 -49 69 -97 126 -59 70 -86 111 -84 125 2 15 29 35 93 69
456 246 747 626 861 1126 13 57 28 109 34 115 5 5 10 20 10 33 0 30 14 29 39
-3 14 -18 18 -34 14 -54 -4 -24 9 -49 89 -162 52 -73 105 -153 119 -177 31
-57 53 -71 75 -49 15 14 15 19 -1 52 -10 20 -64 86 -121 147 -57 61 -107 122
-110 135 -5 18 0 31 17 47 13 13 29 31 34 41 10 17 14 15 54 -18 49 -41 71
-46 71 -15 0 26 -16 49 -160 228 -63 79 -120 151 -127 160 -7 9 -22 65 -33
125 -38 197 -118 400 -212 541 -117 174 -273 340 -418 446 -48 35 -236 143
-285 164 -304 128 -653 176 -930 125z"/>
<path d="M27598 15073 c-46 -53 -48 -91 -9 -165 35 -66 61 -159 61 -220 0
-143 -95 -338 -221 -453 -106 -97 -263 -189 -378 -221 -57 -16 -101 -44 -101
-64 0 -17 32 -40 55 -40 39 0 209 66 288 111 96 56 198 139 248 201 123 156
199 361 199 536 0 84 10 102 60 102 67 0 64 35 -7 76 -31 19 -51 41 -68 75
-38 74 -93 101 -127 62z"/>
<path d="M15047 14906 c-4 -10 -7 -49 -7 -87 0 -39 -7 -101 -16 -140 -17 -75
-11 -99 26 -99 41 0 46 25 35 187 -7 120 -23 177 -38 139z"/>
<path d="M5606 14856 c-57 -89 -306 -594 -306 -621 0 -33 10 -54 30 -65 42
-22 71 17 90 119 6 35 44 137 84 229 140 319 184 465 102 338z"/>
<path d="M1790 14733 c-210 -33 -377 -85 -546 -171 -139 -71 -245 -147 -362
-257 -242 -228 -392 -497 -468 -840 -26 -115 -26 -474 0 -595 56 -268 163
-502 328 -722 67 -89 289 -313 333 -335 17 -9 56 -33 88 -55 54 -37 57 -41 57
-81 0 -23 -14 -118 -30 -212 -16 -93 -30 -196 -30 -227 0 -87 25 -86 51 1 14
49 28 58 59 41 42 -22 56 9 75 160 20 155 27 180 54 180 11 0 66 -16 123 -34
102 -35 142 -43 333 -72 182 -28 438 -3 645 61 96 31 261 106 352 161 52 32
64 35 80 25 18 -11 24 -9 47 18 20 24 36 31 71 33 l45 3 3 -45 c4 -47 18 -74
34 -64 17 11 29 55 53 201 l24 142 66 95 c123 177 217 412 247 621 16 112 17
353 1 465 -16 113 -74 303 -128 417 -175 372 -523 703 -738 703 -80 0 -127
-46 -127 -124 0 -54 32 -81 123 -105 96 -26 161 -58 249 -123 84 -62 131 -114
220 -248 200 -297 297 -695 242 -989 -32 -170 -133 -394 -239 -530 -80 -103
-238 -255 -325 -312 -113 -75 -185 -110 -311 -152 -143 -48 -263 -67 -425 -67
-204 0 -443 52 -665 146 -329 139 -589 376 -723 659 -220 465 -133 1025 223
1439 93 107 153 161 271 240 210 141 486 235 699 238 141 2 183 -7 201 -46 11
-23 23 -32 46 -34 34 -3 44 -20 44 -74 0 -15 5 -30 11 -34 20 -12 38 20 53 95
9 40 21 80 27 87 6 8 43 31 81 51 111 58 145 121 93 177 -60 65 -213 97 -453
95 -86 -1 -168 -3 -182 -6z"/>
<path d="M23698 14599 c-25 -18 -68 -78 -68 -93 0 -15 28 -4 78 31 39 27 52
41 50 57 -4 28 -27 30 -60 5z"/>
<path d="M28277 14603 c-13 -12 42 -93 63 -93 4 0 10 6 13 14 10 25 -59 96
-76 79z"/>
<path d="M26522 14533 c-97 -48 -108 -192 -19 -255 44 -31 122 -35 165 -8 71
44 89 148 37 216 -45 59 -120 79 -183 47z"/>
<path d="M23367 14455 c-76 -72 -98 -87 -155 -106 -93 -30 -253 -111 -328
-164 -241 -172 -409 -440 -475 -760 -19 -92 -17 -374 3 -460 37 -153 85 -251
142 -288 39 -26 89 -22 120 9 38 38 34 76 -13 138 -94 123 -127 243 -118 430
7 146 26 237 78 376 52 139 106 227 198 323 136 143 284 226 493 277 439 107
870 -89 1150 -525 209 -324 254 -677 124 -976 -54 -127 -94 -185 -199 -295
-209 -218 -437 -325 -729 -341 -194 -10 -349 23 -544 117 -130 63 -189 109
-199 156 -3 16 -11 45 -17 65 -5 20 -7 45 -4 57 12 36 -14 35 -70 -2 -54 -36
-55 -36 -134 -30 -100 9 -130 -6 -130 -64 0 -125 284 -351 563 -450 161 -56
227 -67 417 -67 193 0 281 16 437 76 126 49 236 115 357 214 203 165 366 456
417 745 19 108 17 385 -4 480 -10 41 -17 85 -17 97 0 11 -11 45 -25 75 -14 29
-25 64 -25 77 0 17 33 56 118 140 146 146 177 196 103 170 -24 -8 -39 -8 -61
1 -25 10 -34 9 -62 -8 -18 -12 -57 -48 -86 -81 -31 -36 -61 -61 -73 -61 -12 0
-35 22 -62 58 -96 130 -152 192 -230 254 -201 160 -374 239 -595 273 -59 9
-120 23 -136 31 -16 8 -42 14 -58 14 -15 0 -37 9 -48 20 -16 16 -18 25 -10 46
11 28 6 44 -13 44 -7 -1 -52 -39 -100 -85z"/>
<path d="M30686 14368 c10 -18 35 -57 56 -86 22 -29 46 -69 54 -87 16 -40 45
-60 62 -43 30 30 6 72 -117 201 -54 56 -80 63 -55 15z"/>
<path d="M2006 14361 c-5 -7 -21 -57 -37 -110 -19 -68 -24 -99 -17 -108 29
-35 55 3 63 89 8 88 4 149 -9 129z"/>
<path d="M31803 14265 c-76 -39 -117 -106 -121 -200 -3 -63 0 -75 27 -122 46
-78 137 -133 220 -133 62 0 108 19 160 66 61 55 75 93 69 191 -6 87 -34 137
-107 188 -37 26 -53 30 -119 33 -67 3 -84 0 -129 -23z"/>
<path d="M23269 14009 c-31 -35 -74 -71 -101 -85 -76 -38 -90 -93 -39 -145 40
-40 100 -40 180 0 72 37 164 61 227 61 72 0 177 -31 272 -79 95 -48 233 -172
308 -277 66 -92 129 -223 155 -320 27 -104 45 -130 82 -120 54 13 47 90 -23
270 -144 367 -451 595 -852 631 -96 8 -112 19 -112 76 -1 37 -4 44 -22 47 -16
2 -36 -13 -75 -59z"/>
<path d="M11150 14017 c0 -15 25 -91 56 -170 31 -78 65 -166 75 -196 28 -80
75 -125 105 -100 23 19 17 41 -29 110 -24 36 -69 125 -102 197 -32 73 -69 144
-82 159 l-22 28 -1 -28z"/>
<path d="M25193 13999 c-12 -4 -27 -17 -33 -29 -6 -12 -65 -78 -131 -146 -109
-114 -162 -184 -141 -184 25 0 321 252 342 291 24 44 2 83 -37 68z"/>
<path d="M15912 13989 c-52 -15 -138 -77 -166 -119 -56 -86 -61 -208 -10 -307
23 -46 42 -67 91 -99 105 -71 211 -71 316 0 49 32 68 53 91 99 70 138 32 299
-90 381 -82 55 -151 68 -232 45z"/>
<path d="M32606 13911 c-71 -47 -87 -141 -42 -249 40 -95 57 -194 50 -280 -17
-217 -111 -401 -292 -574 -210 -200 -462 -323 -772 -374 -52 -9 -105 -22 -117
-30 -54 -34 -6 -104 71 -104 58 0 285 53 391 90 127 46 236 102 340 178 120
87 172 137 265 262 134 179 211 358 259 605 l26 130 55 -3 c30 -2 62 -10 71
-18 25 -23 49 -17 49 11 0 17 -19 44 -62 87 -83 85 -114 130 -133 193 -25 88
-92 120 -159 76z"/>
<path d="M14280 13762 c-61 -29 -123 -101 -143 -163 -30 -98 -17 -173 47 -260
64 -86 184 -121 300 -87 57 17 138 99 159 162 45 132 -10 283 -125 340 -64 32
-181 36 -238 8z"/>
<path d="M1207 13569 c-20 -11 -49 -38 -65 -61 -24 -37 -27 -50 -27 -128 0
-75 3 -91 24 -122 42 -61 84 -83 170 -86 72 -4 78 -2 125 30 96 64 124 178 70
286 -40 80 -79 102 -179 102 -60 -1 -89 -6 -118 -21z"/>
<path d="M2520 13553 c-54 -19 -111 -68 -134 -116 -55 -108 -27 -228 69 -297
103 -74 253 -44 320 65 26 42 30 58 30 119 0 100 -28 154 -103 201 -48 30 -65
35 -112 34 -30 0 -62 -3 -70 -6z"/>
<path d="M19779 13521 c-101 -40 -275 -175 -371 -288 -150 -178 -245 -367
-294 -588 -21 -93 -29 -305 -15 -424 32 -267 157 -525 350 -721 117 -118 203
-179 356 -254 184 -91 396 -146 558 -146 29 0 66 -4 83 -9 21 -6 49 -4 91 7
90 24 107 13 178 -111 93 -162 134 -225 152 -231 24 -10 31 10 20 53 -9 33 -8
40 11 59 12 12 22 28 22 35 0 6 -27 55 -60 106 -33 52 -60 103 -60 114 0 13
17 26 58 44 156 69 210 98 307 163 203 139 347 322 451 575 53 129 76 128 131
-5 38 -93 49 -110 68 -110 40 0 12 75 -60 159 -55 64 -67 113 -36 144 21 21
21 21 57 2 29 -15 37 -16 44 -5 10 17 8 23 -64 148 -58 102 -58 103 -71 225
-25 233 -118 449 -276 643 -75 92 -132 142 -244 216 -113 75 -176 107 -290
148 -154 54 -243 70 -411 70 -180 0 -253 -18 -304 -76 -40 -46 -39 -83 1 -129
37 -42 62 -44 129 -10 262 133 689 6 990 -295 143 -143 216 -291 256 -520 42
-242 -21 -529 -162 -742 -91 -137 -282 -301 -444 -383 -126 -63 -314 -121
-473 -146 -214 -33 -482 28 -681 155 -74 47 -215 184 -270 260 -266 373 -273
873 -18 1259 46 70 190 230 223 248 10 5 51 14 89 18 60 8 76 7 100 -7 22 -13
32 -14 41 -5 8 8 5 25 -15 68 -31 69 -32 89 -6 146 25 57 26 120 2 142 -24 22
-84 21 -143 -2z"/>
<path d="M27480 13490 c0 -6 28 -41 63 -79 34 -37 97 -107 140 -155 81 -89
117 -110 143 -84 22 22 9 42 -64 96 -37 27 -110 90 -163 140 -92 87 -119 106
-119 82z"/>
<path d="M23003 13441 c-24 -11 -55 -38 -72 -62 -60 -82 -32 -206 57 -257 129
-72 286 50 258 202 -19 100 -147 161 -243 117z"/>
<path d="M30858 13312 c-91 -52 -133 -155 -104 -254 31 -108 113 -168 226
-168 83 0 136 30 181 102 53 88 50 164 -12 255 -62 90 -197 120 -291 65z"/>
<path d="M19790 13097 c0 -30 42 -102 60 -102 25 0 22 28 -7 72 -32 50 -53 62
-53 30z"/>
<path d="M16435 13053 c-71 -37 -96 -75 -130 -199 -36 -130 -96 -234 -195
-335 -134 -137 -286 -215 -518 -269 -115 -27 -148 -30 -286 -30 -181 0 -296
16 -480 66 -149 40 -229 73 -377 156 -88 49 -114 59 -145 56 -70 -6 -84 -75
-27 -133 30 -30 264 -148 378 -190 165 -62 340 -97 550 -112 85 -6 296 17 397
43 282 72 575 242 783 453 64 66 89 75 99 36 3 -13 20 -35 36 -47 24 -18 30
-29 30 -60 0 -47 22 -60 53 -30 19 20 20 25 8 89 -6 37 -12 111 -13 163 -1 77
3 105 20 148 13 30 22 74 22 103 0 44 -4 55 -31 80 -27 25 -39 29 -88 29 -31
-1 -69 -8 -86 -17z"/>
<path d="M20574 12971 c-73 -33 -112 -110 -100 -195 8 -54 41 -96 103 -132 58
-34 125 -30 178 11 56 42 75 80 75 152 0 54 -4 67 -33 105 -57 76 -138 97
-223 59z"/>
<path d="M23749 12796 c-56 -38 -73 -72 -74 -143 0 -74 20 -107 85 -140 55
-29 92 -29 147 -2 115 56 126 222 19 288 -48 30 -130 29 -177 -3z"/>
<path d="M11210 12765 c-189 -37 -337 -111 -512 -253 -104 -83 -225 -248 -292
-395 -71 -155 -123 -390 -111 -497 10 -88 -1 -105 -102 -151 -49 -22 -107 -50
-131 -61 -77 -39 -102 -78 -48 -78 12 0 31 -7 42 -15 31 -23 61 -18 146 27 62
32 84 39 97 31 9 -5 32 -57 52 -114 42 -125 63 -166 142 -283 107 -160 249
-282 436 -375 37 -19 65 -40 68 -52 3 -12 14 -19 28 -19 30 0 58 -28 49 -49
-3 -9 -9 -26 -11 -38 -8 -35 23 -30 135 21 95 43 100 44 227 49 157 6 262 34
410 107 182 90 297 193 415 371 59 89 86 142 118 231 51 144 62 205 62 336 0
120 -12 172 -51 213 -34 36 -68 37 -109 2 -36 -30 -36 -38 -1 -168 36 -128 12
-264 -74 -435 -62 -123 -131 -215 -241 -320 -158 -152 -319 -213 -564 -214
-163 0 -266 22 -404 88 -325 154 -548 526 -563 941 -7 181 16 289 93 444 48
97 69 127 142 203 162 168 329 252 577 288 195 29 448 -28 628 -143 70 -45
204 -162 252 -221 32 -40 37 -54 44 -120 4 -41 3 -85 -1 -97 -13 -34 3 -41 56
-23 46 16 48 16 105 -10 135 -60 185 -7 130 140 -30 79 -144 246 -224 326 -69
70 -208 169 -304 217 -70 35 -227 87 -305 100 -81 15 -326 12 -406 -4z"/>
<path d="M2820 12748 c-39 -21 -51 -36 -85 -104 -83 -165 -155 -238 -310 -314
-159 -78 -301 -101 -489 -80 -258 29 -508 131 -716 292 -99 76 -150 77 -150 4
0 -39 56 -92 186 -178 121 -80 152 -97 276 -148 160 -66 236 -80 441 -80 190
0 263 10 412 57 99 31 236 99 332 164 40 27 79 49 87 49 19 0 55 -51 67 -95
10 -36 32 -46 43 -20 3 9 8 59 12 113 5 83 11 107 40 165 19 38 34 84 34 102
0 82 -93 119 -180 73z"/>
<path d="M21136 12629 c-31 -25 -56 -69 -56 -101 0 -12 10 -62 22 -110 20 -84
20 -91 6 -166 -66 -332 -434 -599 -852 -619 -98 -5 -122 -9 -137 -24 -26 -26
-24 -44 7 -68 32 -25 78 -26 246 -6 389 46 701 292 834 658 19 50 40 103 47
117 13 26 16 26 102 18 26 -3 30 0 27 21 -1 13 -24 55 -52 93 -33 47 -51 85
-56 114 -12 82 -80 118 -138 73z"/>
<path d="M23001 12455 c-29 -34 -41 -65 -23 -65 14 0 82 50 91 69 24 45 -28
41 -68 -4z"/>
<path d="M19760 12342 c-55 -27 -80 -74 -80 -147 0 -107 66 -175 169 -175 71
0 120 30 150 93 27 57 27 92 -4 153 -43 86 -148 120 -235 76z"/>
<path d="M7295 12335 c-82 -15 -169 -46 -245 -88 -73 -40 -208 -137 -244 -176
-36 -37 -52 -38 -144 -6 -111 39 -140 30 -108 -33 12 -23 29 -35 73 -49 31
-11 61 -26 66 -35 7 -11 -2 -42 -32 -114 -58 -134 -75 -227 -69 -384 4 -102
10 -140 33 -205 20 -58 28 -102 29 -160 l2 -79 58 -23 c32 -12 76 -39 99 -61
54 -49 146 -111 222 -149 215 -108 498 -102 728 13 145 74 250 173 271 258 10
39 -16 76 -52 76 -36 0 -43 -6 -84 -70 -44 -70 -121 -141 -187 -174 -134 -68
-367 -102 -493 -72 -166 39 -317 149 -420 305 -154 236 -138 551 43 820 92
137 207 242 317 288 183 78 398 67 586 -29 113 -58 254 -199 314 -314 53 -103
82 -222 82 -336 0 -100 -8 -125 -55 -181 -19 -22 -35 -44 -35 -48 0 -5 12 -21
26 -36 14 -15 33 -41 41 -58 54 -106 119 -79 165 68 20 62 23 94 23 227 0 134
-4 165 -24 230 -46 150 -147 319 -234 392 -87 74 -183 133 -282 173 -106 44
-324 57 -470 30z"/>
<path d="M11235 12275 c-100 -54 -124 -160 -54 -240 72 -82 200 -60 250 41 34
71 15 136 -53 187 -35 26 -105 32 -143 12z"/>
<path d="M6405 12270 c-13 -22 21 -42 96 -56 87 -16 89 -17 89 -6 0 12 -106
63 -145 69 -20 3 -35 1 -40 -7z"/>
<path d="M12040 12101 c-30 -8 -41 -41 -13 -41 22 1 53 23 53 39 0 12 -3 12
-40 2z"/>
<path d="M7170 12008 c-74 -50 -180 -207 -218 -322 -44 -135 -37 -330 18 -453
24 -54 25 -86 5 -107 -26 -26 -12 -46 32 -46 9 0 38 -14 64 -31 56 -36 87 -35
109 3 13 25 13 30 -3 60 -10 18 -41 50 -68 71 -76 58 -129 179 -129 297 0 62
30 181 61 244 34 66 98 157 151 214 49 52 59 84 27 90 -8 1 -30 -8 -49 -20z"/>
<path d="M10714 11942 c-36 -24 -42 -99 -24 -283 20 -190 110 -395 230 -518
64 -66 229 -178 313 -212 79 -32 93 -49 79 -96 -16 -52 -2 -61 50 -33 24 13
55 29 69 37 14 7 47 17 73 22 91 17 114 75 52 137 -37 37 -56 40 -161 25 -82
-11 -159 5 -246 50 -114 59 -202 157 -275 304 -71 144 -97 254 -98 428 -1 102
-4 130 -16 137 -18 12 -31 12 -46 2z"/>
<path d="M7569 11911 c-23 -23 -29 -38 -29 -71 0 -61 41 -100 105 -100 82 0
127 70 93 145 -27 60 -120 74 -169 26z"/>
<path d="M28340 11843 c-14 -2 -66 -17 -116 -34 -261 -85 -448 -274 -540 -544
-36 -108 -45 -303 -19 -420 36 -163 118 -308 244 -436 78 -78 206 -169 265
-189 59 -19 70 -40 74 -145 5 -109 20 -137 53 -96 14 18 19 39 19 91 0 91 5
94 127 85 215 -15 423 44 568 160 79 63 145 105 166 105 33 0 46 21 52 90 3
36 17 94 33 130 39 95 53 171 54 296 0 254 -109 483 -306 642 -160 129 -334
163 -334 65 0 -29 14 -37 109 -61 161 -43 291 -162 387 -358 98 -200 97 -380
-3 -584 -39 -79 -62 -110 -132 -181 -71 -70 -102 -93 -181 -132 -127 -63 -225
-82 -380 -74 -144 7 -249 34 -367 93 -78 39 -105 60 -180 137 -105 110 -146
182 -174 309 -24 106 -22 239 5 343 58 220 247 429 461 510 72 27 152 36 163
18 4 -6 21 -12 37 -15 17 -3 36 -7 44 -9 8 -2 18 8 24 26 5 17 25 46 42 66 46
52 53 78 25 101 -18 15 -39 18 -109 17 -47 -1 -97 -4 -111 -6z"/>
<path d="M31981 11758 c12 -24 63 -101 114 -173 51 -71 136 -194 190 -273 97
-143 118 -165 165 -177 33 -8 65 24 55 54 -3 11 -52 67 -108 123 -56 57 -149
164 -207 238 -106 138 -206 250 -222 250 -5 0 1 -19 13 -42z"/>
<path d="M2933 11635 c-25 -66 -53 -160 -53 -181 0 -45 41 -41 60 5 6 15 10
66 8 117 -3 80 -4 86 -15 59z"/>
<path d="M990 11609 c-6 -24 -15 -57 -20 -74 -10 -39 -30 -129 -76 -344 -40
-189 -39 -230 3 -258 19 -13 23 -12 41 7 18 20 20 35 19 139 -1 70 6 153 16
211 26 147 47 344 37 354 -5 5 -13 -10 -20 -35z"/>
<path d="M10030 11571 c-240 -88 -331 -138 -317 -175 12 -31 37 -29 100 12 34
22 103 60 152 86 90 46 154 90 145 99 -3 3 -39 -7 -80 -22z"/>
<path d="M11690 11518 c-49 -34 -72 -71 -77 -125 -5 -58 18 -107 67 -140 26
-18 47 -23 98 -23 64 0 66 1 108 45 71 74 71 146 0 221 -41 42 -45 44 -103 44
-46 0 -68 -5 -93 -22z"/>
<path d="M14347 11353 c-3 -4 -10 -123 -16 -263 -6 -140 -16 -339 -22 -442 -7
-102 -9 -197 -5 -211 8 -35 54 -87 76 -87 53 0 62 59 30 192 -18 74 -20 120
-21 423 -1 187 -4 351 -8 364 -7 25 -25 38 -34 24z"/>
<path d="M7450 11273 c-54 -37 -70 -84 -46 -135 20 -42 63 -68 111 -68 49 0
105 53 105 99 0 92 -100 152 -170 104z"/>
<path d="M28735 11274 c-47 -24 -65 -53 -65 -107 0 -42 5 -54 34 -83 29 -29
41 -34 81 -34 40 0 52 5 81 34 29 29 34 41 34 80 0 97 -83 153 -165 110z"/>
<path d="M28044 11146 c-28 -28 -34 -42 -34 -76 0 -34 6 -48 34 -76 28 -28 42
-34 76 -34 34 0 48 6 76 34 24 24 34 43 34 65 0 68 -51 121 -116 121 -28 0
-44 -8 -70 -34z"/>
<path d="M30494 11125 c-84 -43 -139 -90 -202 -174 -84 -112 -112 -199 -112
-354 0 -161 19 -220 107 -345 91 -129 252 -222 433 -251 33 -6 65 -13 71 -16
5 -4 22 -31 36 -61 37 -78 85 -72 63 8 -15 52 -5 65 68 89 133 43 231 116 321
237 27 37 63 82 80 100 36 38 36 41 16 119 -8 31 -15 89 -15 129 0 160 -92
318 -245 418 -97 64 -186 96 -271 96 -74 0 -117 -25 -98 -57 9 -15 28 -19 106
-23 84 -4 103 -9 174 -44 53 -27 99 -59 140 -100 103 -104 140 -204 132 -364
-4 -80 -8 -99 -43 -169 -97 -197 -292 -302 -542 -291 -96 4 -108 7 -187 46
-101 50 -159 110 -211 216 -77 158 -69 328 23 480 68 113 154 186 218 186 37
0 44 8 68 73 14 38 15 51 6 62 -19 23 -80 18 -136 -10z"/>
<path d="M20530 10967 c0 -21 213 -435 244 -473 21 -27 34 -34 54 -32 22 2 28
9 30 33 2 25 -8 43 -53 95 -30 35 -67 85 -82 110 -57 99 -175 280 -184 280 -5
0 -9 -6 -9 -13z"/>
<path d="M28962 10878 c-11 -13 -30 -49 -42 -81 -26 -70 -107 -162 -178 -200
-65 -35 -160 -57 -252 -57 -86 0 -231 35 -310 75 -53 27 -67 30 -89 16 -65
-41 157 -146 334 -158 191 -12 356 47 515 186 28 25 43 30 75 28 l40 -2 3 94
c2 60 -1 98 -9 107 -17 21 -63 17 -87 -8z"/>
<path d="M30879 10837 c-20 -15 -39 -51 -39 -72 0 -26 55 -75 85 -75 36 0 75
41 75 80 0 60 -76 102 -121 67z"/>
<path d="M31126 10637 c-12 -9 -20 -35 -26 -85 -11 -83 -28 -122 -79 -175 -67
-71 -159 -107 -296 -116 -86 -5 -100 -8 -103 -25 -4 -17 4 -18 120 -14 108 3
130 7 178 30 71 34 148 103 195 175 21 32 48 67 61 78 20 18 22 25 16 69 -8
58 -36 85 -66 63z"/>
<path d="M30462 10604 c-33 -23 -31 -86 4 -113 34 -27 68 -27 94 1 26 28 26
68 -1 102 -24 30 -63 34 -97 10z"/>
<path d="M24344 10559 c-279 -27 -592 -163 -845 -367 -90 -72 -227 -226 -293
-329 -155 -240 -153 -443 4 -443 74 0 97 30 115 150 23 147 97 275 239 415
205 203 471 338 800 406 127 27 273 21 421 -15 275 -67 435 -157 642 -359 194
-190 294 -360 361 -615 35 -134 35 -141 36 -332 0 -205 -8 -264 -60 -472 -53
-213 -148 -413 -266 -563 -259 -327 -602 -495 -1012 -495 -165 0 -289 21 -453
75 -201 67 -352 162 -516 323 -175 173 -273 318 -346 512 -53 141 -95 331 -86
390 3 25 6 53 6 63 0 9 13 24 30 32 24 13 29 22 29 54 0 42 13 51 73 51 30 0
47 24 28 43 -6 6 -44 14 -85 18 -41 4 -83 12 -95 18 -11 7 -43 45 -71 86 -88
131 -165 140 -214 25 -59 -142 -37 -519 43 -750 126 -365 320 -629 617 -841
174 -124 405 -221 623 -261 152 -28 390 -29 541 -4 261 44 532 162 751 326
102 76 252 223 310 303 29 39 66 87 83 104 16 18 50 75 75 125 61 124 60 123
254 108 317 -23 351 -24 365 -8 18 22 -7 39 -70 49 -63 10 -74 20 -56 48 9 16
10 26 2 39 -9 14 -37 19 -170 27 -87 6 -165 14 -171 18 -18 11 -16 49 6 142
34 140 44 267 38 439 -13 330 -104 594 -297 864 -33 46 -60 93 -60 106 0 12
-11 32 -25 44 -14 12 -25 31 -25 43 0 11 -5 30 -11 41 -15 28 11 48 62 48 44
0 58 15 36 37 -12 12 -58 19 -179 28 l-163 13 -145 74 c-208 107 -350 149
-565 168 -115 11 -197 10 -311 -1z"/>
<path d="M10855 10483 c-49 -12 -63 -53 -17 -53 16 0 42 12 62 30 l35 29 -30
-1 c-16 0 -39 -3 -50 -5z"/>
<path d="M3424 10266 c-56 -14 -233 -104 -324 -166 -276 -188 -500 -463 -620
-764 -58 -146 -82 -233 -105 -382 -24 -150 -17 -455 14 -598 88 -413 343 -789
694 -1025 222 -148 429 -237 658 -280 63 -12 141 -28 174 -36 39 -8 91 -11
147 -8 108 7 154 -1 173 -31 9 -13 49 -100 90 -194 71 -164 112 -243 135 -257
19 -12 22 24 6 72 -24 71 -22 81 21 85 26 2 39 8 41 20 2 9 -26 77 -62 150
-36 73 -66 138 -66 144 0 24 40 43 139 69 237 59 410 148 626 321 177 141 343
347 433 538 45 94 100 186 113 186 3 0 17 -25 29 -55 25 -61 45 -70 80 -35 27
27 33 26 66 -17 15 -21 32 -41 38 -45 14 -9 26 0 26 19 0 22 -72 189 -140 323
l-58 115 -5 220 c-4 174 -9 240 -26 315 -73 325 -262 642 -511 854 -122 104
-207 160 -355 231 -269 131 -432 169 -692 163 -142 -3 -163 -6 -206 -27 -90
-44 -111 -129 -53 -206 34 -44 51 -44 175 -3 87 29 107 32 216 32 138 0 227
-20 390 -86 185 -74 360 -193 530 -363 210 -208 298 -382 356 -705 36 -196 15
-436 -57 -642 -118 -338 -325 -588 -639 -773 -167 -99 -403 -179 -650 -221
-188 -32 -322 -32 -501 1 -180 34 -264 62 -405 139 -426 233 -691 668 -716
1178 -7 131 6 247 42 403 41 176 94 296 200 461 138 212 455 501 525 479 12
-4 32 -37 56 -95 31 -76 40 -90 60 -90 14 0 25 8 29 20 10 31 32 24 66 -22 37
-51 57 -65 65 -44 5 14 -52 159 -98 251 -27 52 -26 105 1 143 35 50 71 135 71
170 0 22 -8 41 -25 57 -28 29 -84 32 -171 11z"/>
<path d="M29130 10245 c0 -8 5 -15 10 -15 6 0 10 7 10 15 0 8 -4 15 -10 15 -5
0 -10 -7 -10 -15z"/>
<path d="M13099 10179 c-297 -25 -596 -170 -812 -394 -76 -78 -194 -250 -244
-355 -83 -176 -91 -195 -102 -255 -6 -32 -19 -67 -29 -77 -10 -11 -50 -25 -93
-33 -40 -8 -123 -23 -184 -35 -108 -21 -144 -37 -131 -59 4 -6 23 -11 43 -11
29 0 42 -7 64 -32 l27 -33 117 24 118 24 17 -21 c13 -16 18 -50 23 -154 11
-236 73 -419 213 -630 65 -98 106 -147 184 -219 55 -52 100 -99 100 -106 0
-20 -36 -30 -143 -38 -72 -5 -100 -11 -104 -22 -12 -30 14 -38 79 -24 34 7 74
18 88 25 14 7 44 16 67 20 35 5 46 3 63 -14 28 -28 25 -57 -7 -85 -21 -18 -25
-26 -17 -35 12 -12 34 -10 206 22 61 11 76 10 150 -9 291 -76 606 -46 858 82
94 48 253 160 320 226 169 166 302 401 337 594 19 107 10 166 -30 206 -27 27
-36 30 -70 26 -21 -3 -50 -16 -63 -28 -24 -22 -25 -27 -19 -114 14 -195 -68
-370 -265 -566 -255 -254 -520 -362 -810 -330 -228 24 -443 115 -597 250 -124
109 -186 189 -254 326 -98 197 -137 401 -126 650 24 502 312 876 772 1003 91
24 116 27 265 27 153 -1 173 -3 281 -32 116 -31 260 -96 349 -156 73 -50 248
-226 302 -305 95 -141 140 -262 106 -289 -7 -6 -49 -13 -93 -17 -80 -6 -103
-15 -91 -35 11 -17 60 -13 117 8 55 21 84 18 73 -8 -3 -9 -9 -27 -12 -41 -2
-14 -14 -35 -25 -47 -11 -13 -17 -29 -13 -38 5 -14 16 -16 69 -10 62 7 63 7
111 -33 69 -57 108 -76 139 -68 55 13 71 103 42 239 -64 302 -251 589 -502
769 -258 186 -545 265 -864 237z"/>
<path d="M25798 10103 c-30 -8 -20 -20 25 -31 75 -18 148 -32 172 -32 47 0 42
42 -7 59 -30 11 -156 13 -190 4z"/>
<path d="M24695 10025 c-21 -20 -25 -34 -25 -81 0 -34 6 -67 17 -84 18 -32 81
-69 160 -94 67 -22 178 -100 237 -168 70 -79 133 -210 167 -345 52 -207 37
-421 -47 -678 -32 -94 -106 -245 -163 -330 -23 -33 -41 -70 -41 -82 0 -49 63
-70 106 -35 33 26 133 195 182 307 46 107 86 242 97 328 12 98 12 331 -1 408
-34 209 -125 404 -281 606 -34 46 -63 91 -63 100 0 19 46 55 93 72 33 13 34
26 3 46 -20 13 -49 16 -143 14 -103 -2 -124 1 -163 19 -61 29 -105 28 -135 -3z"/>
<path d="M28116 9904 c-11 -29 -6 -110 8 -129 12 -17 16 -17 31 -5 13 11 15
23 10 59 -12 80 -34 114 -49 75z"/>
<path d="M32225 9914 c-340 -52 -606 -168 -860 -374 -272 -222 -480 -584 -541
-940 -21 -126 -24 -377 -6 -495 50 -309 211 -642 421 -870 110 -119 310 -274
438 -339 29 -14 68 -39 86 -56 23 -20 45 -30 66 -30 49 0 159 -54 170 -83 5
-14 15 -103 20 -198 19 -301 24 -328 55 -316 11 5 16 19 16 49 0 76 8 89 44
82 57 -10 61 6 43 170 -17 151 -15 182 12 191 9 2 54 0 101 -5 464 -53 927
108 1277 443 46 45 67 58 82 54 15 -4 25 3 39 27 18 30 84 62 103 50 5 -3 13
-23 19 -45 12 -42 34 -59 52 -41 9 9 8 55 -1 175 -14 178 -17 153 48 327 61
162 75 249 75 495 1 242 -8 305 -66 478 -63 191 -154 351 -300 529 -167 204
-477 409 -685 453 -94 20 -152 19 -190 -5 -50 -30 -67 -63 -59 -117 11 -84 19
-89 143 -96 60 -3 138 -15 176 -26 364 -106 735 -574 823 -1037 50 -267 -59
-676 -249 -929 -107 -143 -257 -277 -407 -365 -285 -166 -692 -217 -1090 -136
-295 60 -501 166 -698 360 -154 150 -243 287 -302 462 -84 247 -99 470 -49
714 36 178 88 306 192 480 62 102 242 293 367 386 136 103 404 224 493 224 34
0 36 -2 43 -42 4 -24 8 -86 8 -138 1 -90 2 -95 23 -98 32 -5 38 32 23 138 -6
49 -8 99 -5 111 7 22 8 22 22 3 10 -13 26 -19 56 -19 40 0 42 -2 55 -40 30
-93 56 -68 57 55 l0 89 76 73 c86 82 103 120 74 164 -9 14 -33 32 -52 41 -36
15 -182 25 -238 17z"/>
<path d="M24020 9763 c-38 -20 -65 -43 -87 -77 -29 -43 -33 -56 -33 -118 0
-105 47 -176 148 -224 50 -24 146 -11 206 26 68 43 100 98 104 179 3 57 0 73
-25 121 -40 76 -101 113 -192 118 -57 3 -73 0 -121 -25z"/>
<path d="M17468 9705 c-143 -29 -322 -133 -414 -241 -97 -114 -164 -261 -185
-409 -23 -171 26 -370 130 -524 75 -109 222 -240 317 -281 23 -10 45 -24 50
-31 4 -7 11 -53 14 -102 7 -100 20 -120 56 -86 16 15 23 36 26 79 2 33 7 62
11 66 3 3 82 7 174 8 158 1 173 3 253 31 52 18 118 51 171 87 47 32 91 58 98
58 6 0 21 9 33 20 12 11 29 20 39 20 24 0 35 19 43 70 4 25 23 85 42 134 107
265 69 525 -110 753 -80 103 -196 186 -294 212 -51 14 -77 8 -98 -24 -23 -35
-5 -60 53 -74 141 -35 262 -137 346 -292 80 -146 102 -277 72 -409 -54 -228
-233 -415 -455 -476 -94 -26 -268 -24 -380 5 -136 34 -240 91 -324 174 -121
121 -176 254 -176 428 0 174 64 331 186 459 62 65 90 85 176 128 134 67 166
74 247 52 71 -20 62 -24 127 60 37 49 43 80 18 101 -23 19 -161 21 -246 4z"/>
<path d="M3380 9687 c0 -2 16 -42 35 -89 19 -48 37 -105 41 -127 7 -45 26 -66
49 -57 28 10 18 70 -25 140 -23 37 -48 82 -57 101 -9 19 -23 35 -30 35 -7 0
-13 -1 -13 -3z"/>
<path d="M13134 9616 c-82 -36 -121 -164 -72 -235 36 -53 71 -74 132 -79 70
-6 130 26 165 88 45 80 8 191 -75 226 -42 18 -109 17 -150 0z"/>
<path d="M12487 9412 c-9 -10 -26 -45 -37 -78 -78 -226 -80 -522 -6 -719 73
-191 192 -349 358 -474 31 -23 59 -48 62 -56 2 -7 -8 -33 -24 -56 -16 -24 -26
-47 -24 -51 8 -12 56 -9 110 7 27 8 85 15 130 15 71 0 83 3 102 23 61 65 -20
177 -129 177 -55 0 -163 34 -218 69 -85 55 -174 159 -225 263 -68 136 -90 245
-89 433 1 153 4 173 65 383 9 31 9 48 2 60 -16 24 -57 27 -77 4z"/>
<path d="M20460 9324 c-583 -53 -1067 -425 -1259 -967 -56 -158 -74 -271 -74
-462 0 -138 5 -190 23 -275 74 -349 281 -687 543 -888 155 -119 231 -170 263
-178 39 -9 121 -51 131 -66 4 -7 10 -119 13 -248 5 -211 7 -235 22 -238 12 -2
19 5 23 25 14 70 19 78 55 83 l35 5 5 147 c3 95 9 151 17 159 9 9 42 8 145 -5
255 -31 448 -15 665 55 151 49 291 126 452 248 71 54 74 55 88 36 12 -16 14
-43 9 -147 -6 -133 0 -154 33 -124 17 15 18 31 13 169 -5 166 -4 172 52 179
21 2 32 -3 40 -17 34 -63 37 -66 51 -55 10 8 14 52 17 168 l3 157 36 70 c86
167 128 336 136 545 12 326 -68 589 -267 872 -156 222 -413 420 -615 473 -74
19 -108 19 -145 0 -41 -21 -60 -53 -60 -103 0 -64 28 -87 115 -96 77 -8 201
-46 255 -79 132 -79 289 -246 388 -412 147 -245 213 -498 183 -706 -45 -312
-154 -524 -382 -745 -169 -163 -342 -250 -594 -299 -189 -36 -394 -26 -630 30
-435 103 -765 389 -890 771 -44 133 -58 250 -52 413 9 241 75 451 201 641 71
106 235 275 337 347 134 95 374 193 512 210 46 6 47 5 58 -26 11 -31 32 -41
44 -21 4 7 11 8 18 1 7 -5 26 -11 42 -13 23 -2 34 -11 48 -40 32 -66 53 -44
59 61 4 71 5 75 38 100 68 51 120 104 126 128 9 33 -20 71 -69 93 -43 19 -174
31 -257 24z"/>
<path d="M4412 9284 c-165 -83 -175 -319 -18 -417 50 -31 139 -53 178 -44 47
12 122 71 153 121 26 43 30 59 30 120 0 98 -28 155 -102 204 -47 31 -65 37
-122 40 -56 3 -74 -1 -119 -24z"/>
<path d="M11655 9225 c-5 -2 -86 -13 -180 -25 -201 -25 -201 -25 -221 -56 -34
-51 25 -70 105 -34 24 11 109 34 190 50 183 37 204 43 209 58 2 8 -11 12 -45
11 -26 0 -52 -2 -58 -4z"/>
<path d="M17849 9185 c-27 -14 -59 -69 -59 -100 0 -29 30 -74 60 -90 57 -29
116 -11 146 46 18 36 18 53 -2 95 -27 58 -90 79 -145 49z"/>
<path d="M17229 9091 c-59 -60 -22 -171 57 -171 105 0 150 109 72 175 -42 35
-91 34 -129 -4z"/>
<path d="M20410 8879 c-6 -11 -12 -39 -13 -62 -2 -33 2 -42 17 -45 24 -5 36
14 36 60 0 65 -19 87 -40 47z"/>
<path d="M23155 8891 c-8 -14 28 -31 63 -31 16 0 50 -6 76 -14 51 -16 71 -13
80 9 12 32 -22 45 -119 45 -52 0 -96 -4 -100 -9z"/>
<path d="M32843 8849 c-80 -39 -123 -111 -123 -206 0 -133 103 -233 241 -233
59 0 140 47 176 102 25 37 28 50 28 128 0 83 -1 87 -38 137 -23 32 -54 59 -80
72 -58 28 -147 28 -204 0z"/>
<path d="M18047 8822 c-10 -10 -24 -40 -33 -65 -20 -59 -88 -135 -151 -170
-61 -32 -159 -57 -233 -57 -67 0 -221 40 -291 75 -57 29 -82 27 -77 -7 4 -30
102 -82 204 -108 197 -51 391 -3 558 137 17 14 40 23 55 23 14 -1 31 -2 37 -1
16 1 28 159 13 177 -16 20 -63 17 -82 -4z"/>
<path d="M5127 8762 c-15 -10 -39 -34 -53 -53 l-25 -34 7 -165 c6 -142 4 -174
-11 -230 -37 -133 -113 -256 -227 -366 -91 -88 -171 -143 -302 -204 -128 -59
-172 -74 -326 -106 -113 -24 -145 -27 -327 -26 -172 1 -205 -1 -218 -15 -23
-22 -15 -63 17 -86 25 -19 42 -20 260 -20 255 1 306 8 478 65 196 64 329 146
480 298 154 153 245 288 325 480 38 92 42 95 101 75 27 -9 59 -26 72 -38 20
-18 24 -19 32 -7 13 21 5 42 -55 150 -54 94 -74 155 -75 218 0 71 -87 107
-153 64z"/>
<path d="M13432 8659 c-109 -54 -137 -204 -53 -288 76 -76 190 -76 262 -1 89
93 61 238 -55 291 -54 24 -101 24 -154 -2z"/>
<path d="M31639 8607 c-60 -22 -96 -54 -123 -109 -66 -131 1 -278 140 -309 66
-15 111 -6 162 30 60 44 83 83 89 150 9 98 -25 172 -101 216 -53 31 -119 40
-167 22z"/>
<path d="M3285 8585 c-100 -54 -140 -119 -133 -219 3 -53 10 -73 40 -119 51
-76 103 -100 202 -95 61 3 79 8 110 31 20 16 49 47 64 70 37 55 39 159 4 229
-34 69 -105 112 -191 116 -47 2 -75 -2 -96 -13z"/>
<path d="M24138 8491 c-50 -16 -95 -50 -124 -93 -23 -35 -29 -56 -32 -113 -4
-66 -2 -73 30 -120 86 -128 253 -139 352 -24 86 101 65 240 -48 315 -60 39
-124 52 -178 35z"/>
<path d="M20984 8309 c-78 -48 -99 -86 -99 -180 0 -70 3 -81 30 -120 42 -59
94 -84 176 -84 57 0 71 4 103 28 20 16 48 46 63 67 22 35 25 47 21 113 -4 95
-33 143 -109 181 -72 35 -121 34 -185 -5z"/>
<path d="M28720 8325 c-173 -35 -329 -115 -453 -234 -153 -146 -238 -311 -277
-536 -23 -129 3 -416 43 -490 30 -53 22 -75 -46 -140 -99 -94 -112 -123 -60
-139 29 -9 58 6 115 62 58 56 64 54 149 -52 132 -166 373 -301 571 -321 84 -9
158 -33 185 -62 12 -13 26 -23 31 -23 6 0 33 21 61 46 32 28 83 59 138 83 247
105 425 289 510 526 25 71 53 237 53 320 -1 199 -82 395 -164 395 -36 0 -66
-25 -66 -55 0 -10 18 -47 41 -81 110 -169 103 -413 -19 -663 -63 -132 -133
-210 -242 -274 -195 -113 -407 -144 -602 -88 -288 83 -530 351 -612 677 -20
78 -20 230 -1 313 53 224 223 421 445 517 227 99 466 91 690 -21 73 -36 96
-59 131 -127 16 -31 33 -59 38 -62 5 -3 25 1 45 9 19 8 60 15 90 15 87 0 109
41 62 111 -29 43 -138 132 -223 183 -177 105 -436 151 -633 111z"/>
<path d="M19865 8172 c-49 -23 -79 -55 -100 -104 -22 -53 -19 -97 11 -157 70
-140 251 -150 329 -17 49 83 25 205 -52 263 -47 36 -130 42 -188 15z"/>
<path d="M33334 8145 c-46 -27 -69 -67 -84 -145 -38 -197 -178 -369 -382 -468
-311 -151 -721 -137 -1088 37 -74 35 -92 38 -114 15 -24 -24 -19 -62 12 -93
54 -54 334 -148 521 -176 139 -20 226 -19 363 5 268 46 498 169 705 377 57 57
107 103 112 103 10 0 70 -66 87 -95 7 -13 16 -16 28 -12 16 6 17 15 12 65 -4
31 -12 72 -18 91 -6 19 -8 60 -4 95 4 33 9 87 12 118 6 52 4 59 -19 82 -34 34
-88 34 -143 1z"/>
<path d="M25950 8141 c0 -6 17 -13 38 -16 20 -3 55 -10 77 -15 22 -5 112 -17
200 -25 88 -9 189 -20 225 -25 100 -15 182 -12 208 6 27 19 28 45 3 68 -18 16
-28 17 -111 6 -69 -10 -141 -10 -308 -2 -300 14 -332 15 -332 3z"/>
<path d="M5720 8007 c0 -7 7 -22 15 -33 12 -16 14 -17 15 -2 0 23 -11 48 -21
48 -5 0 -9 -6 -9 -13z"/>
<path d="M5750 7932 c0 -8 20 -64 44 -125 23 -62 49 -135 55 -164 15 -61 43
-92 66 -73 23 19 18 59 -15 120 -17 30 -48 89 -69 130 -41 80 -80 134 -81 112z"/>
<path d="M17264 7916 c-8 -34 -1 -61 16 -61 8 0 16 8 18 18 5 25 -6 67 -18 67
-5 0 -12 -11 -16 -24z"/>
<path d="M8350 7904 c-107 -16 -294 -73 -391 -117 -86 -40 -211 -115 -323
-195 -135 -97 -309 -301 -416 -489 -50 -86 -132 -309 -155 -418 -37 -175 -37
-538 -1 -705 47 -216 154 -472 261 -620 18 -25 35 -54 39 -65 3 -11 40 -56 81
-99 59 -62 75 -86 75 -109 0 -28 -54 -160 -99 -247 -29 -53 -91 -219 -91 -241
0 -40 38 -12 70 51 26 51 40 59 58 32 8 -12 23 -22 33 -22 22 0 39 32 99 180
46 116 55 130 79 130 9 0 61 -29 115 -65 158 -103 295 -164 475 -211 125 -32
235 -44 418 -44 180 0 270 11 417 52 77 21 111 27 119 19 17 -17 -15 -102 -78
-214 -54 -93 -60 -117 -30 -117 23 0 51 45 79 127 15 43 35 96 45 118 11 22
22 50 25 62 11 36 30 44 86 37 l52 -7 -7 -52 c-3 -30 -2 -56 3 -59 16 -10 40
26 92 140 79 171 81 174 151 230 198 158 375 418 461 679 61 184 72 254 72
485 1 231 -7 296 -61 475 -70 235 -184 436 -328 581 -85 86 -149 124 -207 124
-62 0 -118 -63 -118 -134 0 -39 11 -50 111 -106 182 -103 323 -317 388 -592
41 -174 54 -294 48 -448 -8 -213 -45 -367 -124 -510 -141 -254 -326 -435 -576
-564 -192 -100 -349 -143 -560 -153 -301 -15 -660 109 -965 333 -187 136 -311
268 -419 446 -97 160 -138 266 -174 458 -36 190 -15 406 61 624 26 77 115 245
182 344 69 103 242 273 354 348 292 198 693 291 1014 236 129 -23 168 -35 176
-57 7 -16 -49 -141 -90 -201 -19 -28 -23 -42 -15 -56 24 -44 59 -10 94 92 37
109 69 150 77 98 2 -12 17 -29 33 -38 29 -16 30 -20 27 -74 -3 -50 -1 -56 16
-56 14 0 30 22 60 84 44 92 45 92 186 131 62 17 116 60 116 91 0 25 -34 76
-68 101 -93 69 -327 154 -489 178 -127 19 -442 18 -563 -1z"/>
<path d="M29240 7910 c0 -5 5 -10 10 -10 6 0 10 5 10 10 0 6 -4 10 -10 10 -5
0 -10 -4 -10 -10z"/>
<path d="M28610 7857 c-31 -16 -70 -73 -70 -104 0 -57 60 -123 112 -123 64 0
128 61 128 123 0 84 -94 142 -170 104z"/>
<path d="M21383 7650 c-38 -23 -54 -51 -82 -146 -24 -81 -96 -191 -163 -248
-104 -90 -238 -145 -424 -177 -146 -24 -186 -21 -424 34 -114 26 -154 40 -257
94 -67 35 -133 63 -146 63 -51 0 -63 -55 -22 -96 31 -31 245 -134 335 -162
404 -123 829 -21 1143 275 54 52 59 54 80 40 12 -8 32 -29 45 -48 13 -19 28
-34 34 -34 20 0 28 57 22 150 -4 69 -2 100 10 134 22 60 20 88 -9 116 -31 32
-95 34 -142 5z"/>
<path d="M28272 7438 c-17 -17 -15 -46 8 -112 53 -155 170 -315 291 -398 76
-52 217 -103 324 -118 114 -16 131 -23 139 -54 8 -34 20 -33 53 4 15 17 48 44
74 60 55 33 68 61 45 95 -23 35 -62 42 -116 21 -25 -10 -63 -25 -85 -33 -107
-41 -221 -22 -355 57 -126 74 -251 242 -305 410 -25 79 -44 97 -73 68z"/>
<path d="M29149 7391 c-35 -35 -39 -44 -39 -91 0 -47 4 -56 39 -91 34 -34 44
-39 86 -39 42 0 52 5 86 39 36 36 39 43 39 96 0 52 -3 60 -34 91 -30 30 -40
34 -86 34 -47 0 -56 -4 -91 -39z"/>
<path d="M33674 7085 c4 -19 2 -73 -5 -121 -10 -75 -9 -88 4 -102 39 -38 62
53 37 147 -5 20 -12 53 -15 74 -3 20 -11 37 -17 37 -6 0 -8 -13 -4 -35z"/>
<path d="M27762 6907 c-46 -40 -92 -87 -104 -105 -18 -30 -19 -35 -6 -48 13
-13 17 -13 35 3 38 33 183 201 183 212 0 23 -28 7 -108 -62z"/>
<path d="M7942 6904 c-80 -40 -107 -87 -107 -183 0 -90 21 -138 79 -185 36
-29 43 -31 125 -31 81 0 90 2 125 28 94 72 121 180 71 282 -37 77 -86 108
-174 113 -56 3 -74 -1 -119 -24z"/>
<path d="M4035 6853 c3 -21 43 -130 88 -243 44 -113 102 -261 129 -330 48
-124 73 -162 114 -174 27 -8 54 16 54 49 0 13 -20 53 -45 89 -53 78 -76 122
-190 371 -79 171 -136 275 -152 275 -3 0 -2 -17 2 -37z"/>
<path d="M12340 6836 c-64 -24 -144 -68 -235 -130 -217 -147 -391 -382 -473
-636 -53 -166 -57 -193 -57 -390 0 -169 3 -193 27 -285 15 -55 37 -124 48
-154 149 -387 532 -700 955 -781 33 -6 79 -16 102 -21 23 -5 78 -9 122 -9 103
0 115 -10 176 -155 60 -144 97 -210 115 -210 11 0 14 9 12 37 -3 27 3 46 17
64 29 36 27 48 -19 144 -62 127 -63 124 115 185 163 55 183 64 289 132 102 66
194 142 247 204 64 75 163 225 192 290 13 29 32 60 41 68 10 8 24 27 32 43 18
35 54 45 88 23 26 -17 46 -13 46 8 0 7 -21 57 -46 112 l-47 100 -8 170 c-8
178 -13 209 -56 340 -34 106 -68 171 -151 296 -87 129 -175 215 -317 309 -135
89 -206 122 -360 167 -105 30 -135 35 -240 36 -152 2 -186 -5 -230 -49 -40
-40 -45 -73 -16 -121 27 -44 51 -48 124 -22 234 83 543 -20 808 -270 220 -207
302 -396 303 -696 0 -119 -4 -156 -26 -242 -31 -119 -90 -250 -152 -336 -57
-80 -199 -221 -267 -264 -266 -170 -622 -253 -891 -209 -216 35 -370 110 -517
251 -180 173 -264 330 -312 579 -42 216 -9 438 94 651 67 136 122 209 240 321
142 134 166 145 195 87 11 -21 22 -51 26 -68 10 -40 34 -77 46 -70 17 10 11
41 -15 92 -32 62 -26 83 25 83 21 0 43 -7 50 -15 14 -17 36 -20 44 -6 3 5 -1
28 -9 51 -22 62 -19 101 15 172 36 75 36 78 9 112 -18 22 -28 26 -72 25 -29 0
-68 -6 -87 -13z"/>
<path d="M31790 6633 c0 -40 11 -74 21 -67 10 6 12 55 3 78 -10 25 -24 18 -24
-11z"/>
<path d="M9180 6553 c-179 -91 -181 -344 -4 -428 49 -23 64 -26 115 -20 72 8
137 48 176 106 24 36 28 54 31 123 3 75 1 85 -28 133 -37 65 -92 99 -175 108
-53 5 -66 3 -115 -22z"/>
<path d="M2417 6545 c-258 -95 -417 -310 -417 -564 0 -143 35 -242 132 -374
64 -85 206 -186 320 -227 21 -7 29 -19 38 -52 20 -82 25 -93 45 -93 17 0 20 8
23 52 4 65 25 83 97 83 109 0 225 45 335 130 36 27 89 66 118 85 l52 36 0 57
c0 31 7 82 15 112 19 72 19 200 0 275 -43 163 -152 298 -304 373 -95 48 -149
54 -181 22 -11 -11 -20 -24 -20 -29 0 -22 34 -41 74 -41 100 0 260 -128 333
-266 136 -256 -43 -600 -345 -663 -73 -15 -184 -13 -267 4 -202 43 -342 189
-377 395 -10 60 -10 82 6 158 10 48 32 113 49 145 40 76 128 168 202 213 55
32 65 35 115 29 63 -6 68 -4 102 50 35 58 39 72 22 90 -19 19 -114 19 -167 0z"/>
<path d="M31804 6530 c-5 -9 -8 -127 -6 -280 3 -227 6 -269 20 -294 27 -46 48
-55 73 -29 l22 21 -26 104 c-15 62 -30 165 -37 258 -13 166 -29 245 -46 220z"/>
<path d="M28765 6339 c-4 -6 -5 -13 -2 -16 7 -7 27 6 27 18 0 12 -17 12 -25
-2z"/>
<path d="M22940 6295 c-315 -39 -641 -153 -909 -320 -450 -279 -768 -670 -942
-1156 -174 -487 -163 -1051 28 -1539 154 -393 426 -773 718 -1003 50 -39 110
-89 135 -113 25 -23 56 -45 69 -49 34 -10 192 -102 219 -127 27 -26 27 -49 7
-213 -20 -160 -45 -434 -45 -494 0 -32 5 -53 16 -61 25 -22 44 9 60 101 16 96
32 149 44 149 4 0 13 -14 20 -30 16 -39 43 -54 69 -40 27 14 28 21 42 235 6
105 16 200 20 213 11 30 41 29 155 -8 52 -16 160 -42 241 -56 133 -24 173 -27
388 -28 268 0 399 16 608 75 259 73 437 161 732 363 22 15 48 25 58 22 13 -3
24 4 35 25 18 30 37 38 44 16 3 -6 0 -41 -6 -77 -14 -83 -10 -109 19 -122 21
-9 30 -7 59 16 45 34 49 26 56 -89 5 -83 7 -90 27 -93 16 -2 23 4 32 30 21 66
61 446 61 582 l0 68 86 137 c231 368 334 718 334 1140 0 355 -73 665 -230 976
-64 126 -175 303 -248 395 -264 330 -611 574 -849 597 -121 11 -193 -54 -193
-176 0 -81 19 -117 68 -130 20 -6 48 -11 62 -11 46 0 214 -51 285 -85 171 -85
392 -298 534 -515 210 -322 352 -761 353 -1090 0 -410 -191 -867 -502 -1195
-244 -258 -504 -422 -811 -510 -334 -96 -630 -105 -994 -30 -284 59 -469 120
-674 225 -211 108 -351 211 -517 382 -165 171 -256 307 -348 519 -122 282
-171 622 -132 915 19 145 76 376 118 482 82 208 217 433 342 571 33 37 75 83
91 102 53 60 211 190 317 262 195 131 383 212 643 278 177 44 421 78 463 63
35 -12 39 -51 17 -190 -9 -57 -14 -113 -10 -124 10 -32 42 -34 81 -5 19 15 38
24 41 21 4 -3 9 -50 12 -104 6 -91 7 -97 28 -100 36 -5 38 5 82 401 6 50 15
85 26 97 10 11 58 43 107 72 110 64 178 134 178 183 0 85 -112 147 -313 174
-104 14 -376 12 -507 -4z"/>
<path d="M13052 6223 c-126 -62 -129 -250 -4 -321 122 -68 262 29 250 173 -11
129 -134 203 -246 148z"/>
<path d="M19891 6198 c-6 -18 -12 -120 -13 -226 -3 -192 -3 -194 20 -212 13
-11 30 -16 38 -13 25 10 27 52 5 161 -14 69 -21 145 -21 215 0 108 -10 134
-29 75z"/>
<path d="M2740 6160 c-30 -30 -27 -83 6 -109 15 -12 34 -21 44 -21 10 0 29 9
44 21 34 27 35 71 1 104 -29 30 -68 32 -95 5z"/>
<path d="M2280 6030 c-11 -11 -20 -31 -20 -45 0 -32 42 -75 73 -75 54 0 89 87
49 123 -25 23 -78 21 -102 -3z"/>
<path d="M7602 5988 c-20 -20 -14 -81 11 -114 194 -259 389 -414 651 -519 107
-43 160 -54 307 -66 209 -16 420 8 577 67 34 13 75 24 91 24 24 0 31 -6 45
-43 9 -23 16 -57 16 -75 0 -34 19 -43 39 -18 7 8 22 52 35 99 24 88 42 119
108 196 74 86 33 171 -84 171 -61 0 -92 -20 -185 -119 -61 -66 -99 -97 -153
-125 -81 -43 -276 -96 -351 -96 -64 0 -275 45 -358 76 -82 31 -215 102 -301
161 -78 54 -232 203 -302 293 -28 36 -60 73 -71 83 -22 20 -58 22 -75 5z"/>
<path d="M2941 5921 c-10 -10 -26 -44 -35 -75 -32 -110 -120 -175 -263 -196
-81 -12 -142 -6 -231 22 -25 7 -37 7 -45 -2 -20 -19 26 -47 109 -66 160 -35
296 9 456 150 25 23 53 47 62 54 21 17 21 81 0 110 -19 27 -28 28 -53 3z"/>
<path d="M13553 5816 l-28 -24 -5 -159 -5 -158 -44 -89 c-95 -196 -299 -336
-576 -396 -67 -15 -129 -20 -245 -20 -108 0 -160 -4 -168 -12 -21 -21 -13 -48
20 -68 28 -17 47 -19 202 -15 129 3 190 9 248 24 297 77 502 248 653 542 62
122 52 115 138 93 37 -9 36 11 -7 91 -19 36 -37 88 -41 117 -10 76 -27 98 -75
98 -27 0 -48 -8 -67 -24z"/>
<path d="M12199 5698 c-48 -27 -79 -83 -79 -142 0 -60 20 -99 72 -136 109 -79
252 -2 252 136 0 127 -136 206 -245 142z"/>
<path d="M23116 5683 c-3 -10 -14 -86 -25 -169 -10 -82 -26 -167 -35 -188 -20
-48 -20 -70 -1 -86 22 -19 61 -4 73 27 16 41 20 425 5 430 -6 2 -14 -4 -17
-14z"/>
<path d="M16715 5600 c-112 -13 -193 -29 -307 -60 -696 -192 -1248 -751 -1422
-1440 -43 -169 -57 -292 -57 -490 0 -270 30 -447 115 -681 160 -438 471 -826
867 -1082 48 -31 97 -70 109 -87 18 -25 27 -30 46 -26 16 4 45 -3 82 -20 31
-15 76 -35 98 -44 23 -10 46 -24 50 -32 5 -7 9 -165 9 -350 0 -308 2 -339 18
-355 28 -28 42 0 56 107 7 52 14 96 17 99 2 2 17 -8 33 -23 55 -53 89 -15 77
87 -12 103 -10 347 2 359 10 10 32 8 100 -5 266 -52 566 -50 832 4 120 25 341
100 444 151 153 77 407 249 475 322 30 32 57 33 65 4 12 -48 6 -249 -10 -313
-18 -69 -14 -109 12 -119 22 -9 53 11 60 38 3 13 2 119 -3 235 -4 117 -5 221
-1 232 5 14 17 19 41 19 20 0 46 9 61 21 l26 20 10 -26 c5 -14 10 -48 10 -74
0 -58 20 -91 47 -75 16 10 19 34 23 245 l6 234 57 111 c128 250 187 507 187
819 0 250 -23 394 -97 617 -157 474 -518 904 -940 1119 -240 122 -411 133
-481 29 -20 -30 -23 -45 -20 -97 3 -43 10 -71 24 -90 19 -26 28 -28 110 -34
270 -19 484 -133 706 -374 265 -289 451 -680 497 -1045 19 -146 -14 -390 -80
-599 -154 -483 -564 -904 -1034 -1059 -341 -113 -638 -126 -1045 -46 -343 67
-641 203 -861 391 -92 78 -233 237 -295 329 -191 291 -290 668 -263 999 26
328 122 605 303 879 108 164 304 360 466 468 121 80 276 162 388 204 83 31
309 94 339 94 43 0 56 -38 48 -147 -3 -54 -11 -121 -17 -150 -9 -41 -8 -56 2
-68 16 -19 34 -19 54 1 14 13 16 41 14 187 -3 147 -1 172 12 172 10 0 16 -12
18 -38 5 -53 38 -69 82 -37 17 12 33 21 35 19 2 -2 9 -33 15 -69 14 -77 22
-94 44 -98 24 -5 36 38 36 137 0 48 5 101 10 117 7 19 39 49 90 86 140 101
174 179 107 242 -19 17 -51 38 -73 45 -47 16 -326 23 -429 11z"/>
<path d="M27595 5311 c-176 -44 -473 -241 -633 -420 -219 -244 -364 -550 -403
-850 -41 -317 -2 -595 122 -873 163 -367 506 -687 899 -839 171 -67 398 -121
510 -123 149 -3 140 6 242 -249 89 -225 100 -247 125 -247 12 0 14 8 9 33 -3
17 -9 49 -12 70 l-7 37 36 0 c55 0 55 23 -1 152 -77 174 -80 187 -58 203 10 8
44 19 75 25 99 19 313 91 406 137 50 24 133 73 185 108 229 154 371 310 506
558 47 86 62 99 82 75 19 -24 70 -164 81 -223 13 -69 32 -95 59 -79 9 6 18 20
20 30 1 10 -29 84 -68 163 -38 80 -70 155 -70 167 0 21 56 74 79 74 5 0 20
-15 32 -32 13 -18 28 -36 34 -40 41 -29 32 26 -30 184 l-55 139 0 197 c0 130
-5 226 -15 282 -104 592 -545 1064 -1143 1224 -256 69 -484 53 -547 -37 -24
-34 -19 -105 10 -143 34 -44 51 -48 126 -24 35 12 99 26 141 32 257 37 611
-120 887 -391 173 -170 262 -302 315 -467 174 -536 -6 -1126 -443 -1457 -192
-145 -453 -253 -732 -301 -254 -44 -349 -43 -574 4 -257 53 -482 181 -652 367
-176 195 -271 383 -330 653 -26 122 -26 419 1 545 70 333 267 643 544 853 92
70 124 87 145 79 16 -6 58 -111 78 -189 13 -57 32 -76 54 -58 23 19 19 40 -25
132 -45 95 -58 138 -41 138 6 0 14 -7 17 -15 8 -20 43 -19 67 2 18 17 20 16
57 -27 31 -36 41 -43 51 -33 10 11 9 26 -9 81 -31 96 -29 120 19 196 53 85 61
135 26 170 -32 32 -86 34 -192 7z"/>
<path d="M7278 5073 c-25 -49 -100 -195 -166 -325 -93 -182 -122 -246 -122
-276 0 -41 14 -62 41 -62 26 0 38 22 65 121 13 51 42 131 63 178 21 47 55 129
75 181 40 102 41 105 80 194 28 63 31 76 17 76 -5 0 -29 -39 -53 -87z"/>
<path d="M2436 5132 c-3 -6 -1 -14 5 -17 15 -10 25 3 12 16 -7 7 -13 7 -17 1z"/>
<path d="M14076 5093 c21 -87 39 -128 59 -128 30 0 24 58 -12 108 -36 51 -57
60 -47 20z"/>
<path d="M3432 4964 c-239 -34 -476 -127 -672 -262 -136 -93 -205 -152 -289
-245 -210 -234 -360 -559 -390 -841 -15 -149 -6 -429 19 -540 59 -267 184
-523 364 -746 92 -114 254 -267 313 -297 28 -14 68 -39 87 -55 44 -36 45 -51
11 -243 -37 -203 -47 -283 -40 -305 12 -39 32 -21 59 53 19 50 25 54 58 36 39
-21 54 12 73 161 15 123 32 180 53 180 5 0 48 -14 98 -31 196 -67 393 -95 603
-86 267 12 481 75 714 209 80 46 92 51 118 41 26 -10 30 -9 48 23 19 31 24 34
70 34 l50 0 3 -52 c2 -41 7 -54 20 -56 24 -5 32 21 53 149 26 166 32 183 99
286 225 345 308 718 246 1103 -75 459 -403 932 -750 1081 -117 51 -207 31
-231 -50 -13 -44 -6 -103 15 -120 8 -7 56 -23 108 -37 51 -14 118 -39 148 -57
86 -50 287 -256 342 -352 141 -243 228 -543 228 -788 0 -61 -9 -119 -35 -220
-56 -225 -155 -406 -316 -582 -119 -129 -225 -208 -396 -294 -235 -117 -562
-155 -844 -97 -445 92 -769 282 -999 587 -174 231 -260 546 -231 844 12 121
58 303 105 415 136 322 434 619 746 743 200 80 498 136 563 106 15 -7 27 -16
27 -21 0 -4 11 -8 25 -8 15 0 29 -8 36 -22 16 -30 28 -38 60 -38 27 0 39 -19
39 -67 0 -12 5 -25 12 -29 19 -12 45 31 51 85 9 79 28 105 103 142 202 102
149 220 -117 264 -114 18 -328 18 -457 -1z"/>
<path d="M32655 4930 c-16 -4 -71 -8 -122 -9 -247 -3 -599 -111 -849 -261
-263 -157 -479 -360 -635 -595 -200 -300 -300 -589 -336 -970 -31 -330 17
-650 151 -1007 20 -53 36 -106 36 -117 0 -11 10 -30 23 -43 13 -13 43 -57 67
-98 62 -105 60 -124 -18 -230 -129 -177 -279 -386 -301 -423 -37 -60 -9 -91
40 -44 13 13 43 47 67 75 52 62 70 66 74 16 4 -49 29 -65 59 -39 12 11 71 93
130 183 82 121 114 162 130 162 12 0 61 -41 127 -108 281 -284 636 -477 1012
-552 167 -33 190 -35 450 -35 234 0 255 -1 258 -17 4 -20 -91 -147 -184 -247
-77 -83 -89 -104 -69 -124 20 -21 52 -10 80 28 30 39 129 194 163 255 27 48
80 110 95 110 5 0 20 -9 34 -20 19 -15 35 -19 58 -14 41 7 48 -4 28 -42 -57
-103 -63 -117 -52 -131 6 -7 15 -13 19 -13 18 0 97 95 183 219 66 98 103 141
132 159 22 13 87 51 145 84 374 217 645 539 811 962 161 408 165 960 12 1376
-79 213 -198 401 -297 468 -83 55 -174 42 -224 -34 -54 -82 -43 -127 45 -192
98 -73 168 -162 243 -311 67 -133 127 -448 124 -651 -2 -119 -37 -338 -84
-518 -45 -174 -125 -352 -209 -462 -150 -196 -367 -376 -586 -485 -203 -101
-356 -147 -600 -180 -101 -14 -140 -15 -245 -5 -138 12 -324 49 -440 87 -360
117 -788 461 -1039 834 -228 341 -328 719 -287 1089 59 543 396 1027 906 1303
172 92 391 164 570 187 47 5 122 15 166 22 60 8 102 8 160 0 44 -6 112 -14
152 -17 133 -11 436 -97 554 -156 65 -33 65 -47 2 -136 -31 -43 -81 -104 -111
-135 -56 -57 -63 -81 -28 -95 33 -12 63 18 134 133 89 143 109 168 127 153 10
-9 10 -17 -4 -45 -22 -47 -8 -68 47 -72 22 -2 41 -8 41 -14 0 -6 -14 -33 -30
-60 -37 -60 -48 -103 -28 -111 23 -8 37 5 108 100 78 105 92 112 238 112 142
1 182 24 182 103 0 46 -54 120 -142 194 -225 189 -598 343 -938 388 -147 19
-287 26 -325 16z"/>
<path d="M3651 4474 c-23 -67 -22 -94 3 -94 18 0 24 17 32 95 9 85 -7 85 -35
-1z"/>
<path d="M28462 4489 c-79 -39 -132 -126 -132 -216 0 -43 47 -129 91 -166 90
-78 212 -74 294 8 59 59 78 105 73 180 -3 51 -10 70 -39 111 -68 95 -191 130
-287 83z"/>
<path d="M23905 4468 c-110 -39 -197 -155 -212 -284 -7 -54 21 -158 57 -214
52 -81 161 -140 258 -140 111 0 208 54 277 154 39 56 40 59 43 162 4 97 2 108
-23 160 -15 31 -42 70 -59 87 -85 85 -227 116 -341 75z"/>
<path d="M22130 4419 c-52 -21 -119 -71 -142 -107 -110 -167 -58 -375 114
-462 85 -42 161 -42 246 1 77 38 113 73 148 146 56 113 38 240 -46 336 -60 68
-126 97 -219 96 -42 0 -87 -5 -101 -10z"/>
<path d="M12820 4284 c0 -44 166 -466 191 -487 26 -21 47 -19 62 5 9 13 3 29
-25 75 -20 32 -73 132 -117 223 -75 151 -111 211 -111 184z"/>
<path d="M17586 4224 c-109 -34 -186 -119 -207 -228 -10 -46 -9 -68 4 -122 21
-83 63 -141 134 -185 50 -30 67 -34 135 -38 69 -3 85 0 133 24 103 50 155 130
163 248 13 202 -177 359 -362 301z"/>
<path d="M15952 3994 c-60 -30 -96 -68 -128 -139 -35 -73 -32 -145 7 -223 127
-255 477 -191 506 92 7 72 -10 131 -55 191 -78 102 -216 136 -330 79z"/>
<path d="M29116 3961 c-59 -39 -69 -69 -64 -194 5 -122 -12 -230 -51 -319 -50
-116 -178 -268 -291 -345 -225 -153 -576 -236 -868 -205 -150 17 -179 13 -188
-24 -11 -43 29 -74 112 -84 93 -12 382 -12 469 0 244 35 483 157 665 340 111
111 176 202 254 355 31 60 61 114 66 119 12 12 68 -11 102 -42 28 -26 58 -24
58 3 0 9 -23 60 -50 114 -43 83 -52 109 -57 172 -5 63 -10 78 -34 101 -33 34
-80 37 -123 9z"/>
<path d="M27362 3874 c-114 -58 -154 -186 -96 -303 37 -73 86 -104 173 -109
82 -4 141 23 186 87 27 39 30 50 30 120 0 68 -3 83 -28 119 -41 63 -97 96
-171 99 -43 3 -71 -1 -94 -13z"/>
<path d="M2900 3808 c-52 -28 -106 -100 -116 -156 -15 -81 39 -188 115 -229
92 -48 215 -14 272 75 25 40 29 55 29 122 0 69 -3 81 -29 117 -47 65 -86 87
-161 91 -54 3 -73 -1 -110 -20z"/>
<path d="M32015 3819 c-67 -16 -132 -72 -166 -142 -66 -141 -20 -291 111 -360
50 -26 63 -28 137 -25 76 3 85 6 139 43 115 79 153 221 91 347 -58 119 -172
169 -312 137z"/>
<path d="M4175 3777 c-95 -45 -139 -121 -133 -229 3 -55 9 -75 34 -110 74
-106 175 -131 289 -73 46 23 66 42 90 80 27 44 30 56 29 128 -1 70 -4 83 -30
120 -66 94 -184 129 -279 84z"/>
<path d="M24411 3374 c-57 -29 -105 -85 -116 -136 -22 -98 -126 -267 -222
-359 -151 -146 -371 -246 -627 -284 -135 -20 -255 -19 -419 5 -343 51 -656
180 -922 382 -85 65 -165 47 -165 -36 0 -55 35 -91 183 -186 364 -234 696
-340 1061 -340 340 0 677 106 981 308 66 44 148 103 183 131 75 61 92 64 92
17 0 -28 7 -40 35 -62 31 -23 35 -31 33 -66 -4 -48 21 -73 47 -48 16 17 35
187 35 319 0 66 4 83 35 142 39 76 45 131 19 180 -32 63 -142 78 -233 33z"/>
<path d="M18088 3275 c-50 -34 -82 -93 -108 -195 -39 -158 -152 -314 -308
-424 -99 -69 -155 -97 -272 -134 -148 -47 -245 -62 -409 -62 -172 0 -277 12
-421 46 -187 46 -297 89 -439 171 -76 44 -105 57 -140 57 -38 1 -47 -3 -59
-25 -37 -64 17 -121 194 -206 198 -95 362 -150 534 -178 395 -64 764 11 1097
222 75 47 227 168 314 250 64 61 89 71 89 37 0 -9 14 -30 32 -47 19 -19 34
-46 38 -67 4 -26 11 -36 27 -38 32 -5 37 26 25 165 -10 126 -4 205 22 265 9
21 16 58 16 83 0 38 -5 52 -29 76 -27 26 -36 29 -98 29 -57 0 -75 -4 -105 -25z"/>
<path d="M33414 3068 c-65 -16 -132 -74 -173 -148 -33 -60 -36 -71 -35 -146 0
-75 3 -87 35 -139 57 -95 133 -135 254 -135 87 0 157 31 209 92 52 60 69 104
74 190 4 65 1 84 -19 125 -64 132 -200 196 -345 161z"/>
<path d="M4493 2985 c-34 -21 -49 -41 -89 -120 -40 -81 -61 -108 -134 -179
-64 -62 -107 -93 -161 -119 -97 -47 -218 -77 -339 -84 -261 -16 -597 96 -845
281 -63 47 -110 75 -126 76 -28 0 -59 -27 -59 -51 0 -54 172 -188 365 -284
283 -140 542 -175 828 -110 162 36 356 122 478 211 26 19 56 34 67 34 21 0 57
-50 68 -96 8 -33 22 -39 43 -19 15 13 20 38 26 123 5 88 12 119 36 173 40 88
38 134 -10 166 -45 30 -95 29 -148 -2z"/>
<path d="M12910 3004 c-159 -30 -371 -127 -490 -223 -110 -88 -222 -225 -298
-363 -84 -153 -144 -387 -146 -569 -1 -52 -6 -82 -16 -94 -8 -10 -53 -36 -100
-58 -78 -37 -190 -104 -190 -114 0 -2 8 -2 19 2 12 3 30 -3 49 -20 16 -14 35
-25 40 -25 6 0 46 18 88 41 103 54 123 51 147 -21 111 -339 297 -571 567 -703
90 -44 159 -86 180 -112 7 -9 10 -27 6 -45 -8 -41 9 -39 114 10 69 32 96 40
145 40 121 1 251 19 335 48 250 85 425 220 568 436 122 185 172 344 172 554 0
136 -7 168 -48 215 -34 39 -125 7 -124 -44 0 -13 12 -67 25 -119 24 -91 24
-99 11 -179 -18 -110 -37 -168 -92 -271 -64 -120 -118 -193 -210 -283 -88 -87
-110 -104 -196 -149 -84 -43 -127 -57 -241 -79 -128 -24 -202 -24 -328 2 -204
41 -348 117 -482 254 -197 201 -319 503 -319 795 0 163 21 265 84 396 80 170
164 265 326 370 146 96 295 142 484 151 113 5 136 3 234 -21 208 -50 371 -142
512 -287 102 -106 117 -134 117 -221 -1 -37 -3 -71 -6 -76 -4 -5 19 -4 52 1
52 8 62 7 109 -17 91 -46 132 -30 132 52 0 59 -31 127 -115 252 -140 212 -356
366 -620 446 -82 24 -107 27 -280 30 -104 1 -201 0 -215 -2z"/>
<path d="M31350 2778 c-18 -19 -21 -32 -18 -73 5 -53 9 -62 106 -242 224 -416
596 -715 1013 -812 153 -36 250 -44 473 -37 116 4 238 9 271 12 l60 6 0 -74
c-1 -43 -7 -82 -15 -94 -16 -25 -7 -54 16 -54 26 0 66 51 122 158 52 99 89
141 168 187 59 34 80 104 49 164 -21 42 -88 71 -162 71 -52 0 -67 -4 -107 -32
-192 -136 -228 -157 -308 -182 -166 -50 -253 -56 -403 -30 -96 16 -270 72
-347 110 -306 154 -639 508 -768 818 -49 118 -102 155 -150 104z"/>
<path d="M9009 2580 c-72 -10 -184 -47 -264 -88 -71 -35 -200 -128 -242 -173
-43 -46 -70 -49 -158 -19 -32 11 -71 20 -87 20 -24 0 -28 -4 -28 -28 0 -36 23
-57 77 -71 49 -13 77 -37 70 -60 -3 -9 -22 -55 -42 -104 -55 -131 -68 -208
-62 -367 4 -118 8 -147 36 -230 25 -73 32 -108 29 -153 -3 -64 -5 -63 92 -106
25 -12 76 -48 115 -82 77 -67 214 -139 310 -165 92 -24 236 -28 341 -11 192
32 394 143 482 265 51 72 40 152 -21 152 -30 0 -39 -8 -69 -61 -38 -65 -146
-162 -220 -197 -145 -68 -359 -91 -504 -53 -110 28 -169 65 -280 176 -117 117
-162 193 -195 331 -86 359 167 810 515 920 239 75 491 13 683 -169 155 -146
239 -347 231 -552 -3 -89 -4 -91 -45 -143 -24 -30 -43 -58 -43 -64 0 -6 15
-27 33 -48 17 -20 39 -51 49 -67 9 -17 26 -36 37 -43 35 -18 84 38 113 131 20
64 23 94 23 229 -1 152 -1 157 -36 258 -66 186 -173 334 -311 429 -151 104
-267 143 -443 148 -66 2 -150 0 -186 -5z"/>
<path d="M8090 2505 c-21 -25 0 -37 97 -57 138 -28 147 -21 39 30 -86 40 -119
47 -136 27z"/>
<path d="M12899 2498 c-99 -56 -102 -180 -8 -251 44 -32 101 -33 153 -3 55 32
76 69 76 131 0 58 -22 97 -70 124 -48 27 -105 26 -151 -1z"/>
<path d="M13701 2331 c-8 -5 -11 -16 -8 -25 5 -13 11 -14 32 -4 14 6 25 17 25
25 0 15 -28 17 -49 4z"/>
<path d="M8833 2225 c-49 -41 -131 -151 -166 -221 -43 -87 -60 -180 -55 -311
4 -102 9 -131 38 -215 l34 -97 -22 -24 c-26 -28 -14 -47 30 -47 15 0 44 -11
64 -25 43 -29 66 -31 88 -9 32 32 19 62 -62 147 -118 123 -151 231 -117 381
29 131 95 252 201 367 30 33 54 66 51 72 -8 25 -43 17 -84 -18z"/>
<path d="M12386 2174 c-25 -25 -29 -59 -23 -193 10 -202 58 -356 158 -503 91
-133 175 -202 362 -297 121 -61 120 -60 102 -133 -10 -38 11 -37 88 6 34 19
81 38 105 42 103 16 124 93 42 147 -21 13 -49 16 -150 14 -180 -3 -242 23
-384 161 -76 73 -143 186 -184 307 -34 103 -55 250 -48 344 5 70 4 87 -10 103
-21 22 -38 23 -58 2z"/>
<path d="M9241 2149 c-56 -56 -34 -142 45 -175 51 -21 73 -17 110 20 29 29 34
41 34 81 0 38 -5 52 -29 76 -25 24 -38 29 -79 29 -43 0 -55 -5 -81 -31z"/>
<path d="M24672 2128 c-6 -29 -15 -100 -22 -158 -25 -233 -33 -287 -56 -364
-22 -73 -23 -82 -9 -103 20 -29 36 -29 64 1 26 28 25 20 42 321 6 116 15 230
19 253 8 48 0 94 -17 99 -7 3 -15 -18 -21 -49z"/>
<path d="M28050 2077 c0 -30 14 -75 134 -422 71 -205 92 -255 116 -277 33 -30
59 -35 78 -16 21 21 13 47 -38 131 -28 46 -79 153 -114 238 -134 328 -176 411
-176 346z"/>
<path d="M21992 2058 c-14 -17 -41 -174 -97 -562 -26 -175 -53 -355 -61 -400
-8 -44 -14 -111 -14 -148 0 -57 4 -71 26 -98 34 -40 80 -39 103 1 13 23 13 44
1 156 -12 119 -11 148 8 344 40 402 63 702 54 711 -5 5 -13 3 -20 -4z"/>
<path d="M2679 1893 c-6 -16 -31 -118 -55 -228 -24 -110 -53 -240 -64 -290
-26 -116 -26 -169 0 -195 25 -25 35 -25 61 1 18 18 20 28 14 97 -5 60 0 121
25 282 45 287 52 418 19 333z"/>
<path d="M4580 1780 c-17 -54 -29 -104 -25 -110 14 -23 46 -10 61 25 15 38 20
185 5 185 -5 0 -23 -45 -41 -100z"/>
<path d="M11675 1796 c-71 -29 -152 -61 -179 -71 -27 -10 -63 -30 -80 -46 -26
-23 -29 -31 -20 -46 18 -29 37 -26 91 11 28 19 118 69 201 110 83 41 153 80
157 86 14 22 -45 7 -170 -44z"/>
<path d="M30772 1806 c-23 -25 -103 -123 -179 -219 -76 -97 -158 -201 -183
-232 -200 -252 -218 -283 -189 -334 19 -35 58 -39 86 -9 11 13 37 60 56 106
20 46 67 127 105 180 107 150 315 453 340 493 43 71 23 79 -36 15z"/>
<path d="M13382 1763 c-18 -9 -45 -32 -60 -51 -35 -46 -38 -136 -6 -178 39
-52 71 -69 133 -69 48 0 64 5 94 28 53 41 71 72 71 127 0 119 -125 196 -232
143z"/>
<path d="M16032 1618 c-7 -9 -15 -115 -22 -278 -6 -146 -15 -332 -20 -415 -15
-217 -13 -255 10 -293 11 -18 31 -38 45 -44 60 -27 84 62 48 182 -13 45 -17
126 -22 447 -6 387 -11 434 -39 401z"/>
<path d="M9104 1496 c-26 -26 -34 -42 -34 -71 0 -101 114 -162 188 -100 62 52
65 114 7 172 -28 28 -40 33 -80 33 -40 0 -52 -5 -81 -34z"/>
<path d="M12565 725 c-60 -13 -75 -21 -75 -40 0 -23 18 -27 52 -10 36 17 83
54 77 59 -2 2 -27 -2 -54 -9z"/>
</g>
</svg>
